%TF.GenerationSoftware,KiCad,Pcbnew,(6.0.10)*%
%TF.CreationDate,2023-03-06T16:50:03+01:00*%
%TF.ProjectId,Adapterboard,41646170-7465-4726-926f-6172642e6b69,2.3*%
%TF.SameCoordinates,Original*%
%TF.FileFunction,Soldermask,Top*%
%TF.FilePolarity,Negative*%
%FSLAX46Y46*%
G04 Gerber Fmt 4.6, Leading zero omitted, Abs format (unit mm)*
G04 Created by KiCad (PCBNEW (6.0.10)) date 2023-03-06 16:50:03*
%MOMM*%
%LPD*%
G01*
G04 APERTURE LIST*
G04 Aperture macros list*
%AMFreePoly0*
4,1,22,0.550000,-0.750000,0.000000,-0.750000,0.000000,-0.745033,-0.079941,-0.743568,-0.215256,-0.701293,-0.333266,-0.622738,-0.424486,-0.514219,-0.481581,-0.384460,-0.499164,-0.250000,-0.500000,-0.250000,-0.500000,0.250000,-0.499164,0.250000,-0.499963,0.256109,-0.478152,0.396186,-0.417904,0.524511,-0.324060,0.630769,-0.204165,0.706417,-0.067858,0.745374,0.000000,0.744959,0.000000,0.750000,
0.550000,0.750000,0.550000,-0.750000,0.550000,-0.750000,$1*%
%AMFreePoly1*
4,1,20,0.000000,0.744959,0.073905,0.744508,0.209726,0.703889,0.328688,0.626782,0.421226,0.519385,0.479903,0.390333,0.500000,0.250000,0.500000,-0.250000,0.499851,-0.262216,0.476331,-0.402017,0.414519,-0.529596,0.319384,-0.634700,0.198574,-0.708877,0.061801,-0.746166,0.000000,-0.745033,0.000000,-0.750000,-0.550000,-0.750000,-0.550000,0.750000,0.000000,0.750000,0.000000,0.744959,
0.000000,0.744959,$1*%
G04 Aperture macros list end*
%ADD10C,1.600000*%
%ADD11O,1.600000X1.600000*%
%ADD12R,1.600000X1.600000*%
%ADD13O,1.200000X2.000000*%
%ADD14O,2.000000X1.200000*%
%ADD15R,1.700000X1.700000*%
%ADD16O,1.700000X1.700000*%
%ADD17R,2.200000X2.200000*%
%ADD18O,2.200000X2.200000*%
%ADD19FreePoly0,180.000000*%
%ADD20R,1.000000X1.500000*%
%ADD21FreePoly1,180.000000*%
%ADD22C,3.200000*%
%ADD23R,1.560000X1.560000*%
%ADD24C,1.560000*%
G04 APERTURE END LIST*
D10*
%TO.C,R105*%
X35440000Y-69100000D03*
D11*
X45600000Y-69100000D03*
%TD*%
D12*
%TO.C,U105*%
X82500000Y-65700000D03*
D11*
X82500000Y-68240000D03*
X82500000Y-70780000D03*
X82500000Y-73320000D03*
X90120000Y-73320000D03*
X90120000Y-70780000D03*
X90120000Y-68240000D03*
X90120000Y-65700000D03*
%TD*%
D13*
%TO.C,U108*%
X82350000Y-99500000D03*
X79810000Y-99500000D03*
X77270000Y-99500000D03*
X74730000Y-99500000D03*
X72190000Y-99500000D03*
X69650000Y-99500000D03*
%TD*%
D10*
%TO.C,C107*%
X94500000Y-65650000D03*
X94500000Y-68150000D03*
%TD*%
D14*
%TO.C,U102*%
X123930000Y-51790000D03*
X123930000Y-49250000D03*
X123930000Y-46710000D03*
X123930000Y-44170000D03*
X123930000Y-41630000D03*
X123930000Y-39090000D03*
X123930000Y-36550000D03*
X123930000Y-34010000D03*
X101070000Y-34010000D03*
X101070000Y-36550000D03*
X101070000Y-39090000D03*
X101070000Y-41630000D03*
X101070000Y-44170000D03*
X101070000Y-46710000D03*
X101070000Y-49250000D03*
X101070000Y-51790000D03*
%TD*%
D15*
%TO.C,J107*%
X39380000Y-126000000D03*
D16*
X39380000Y-123460000D03*
X41920000Y-126000000D03*
X41920000Y-123460000D03*
X44460000Y-126000000D03*
X44460000Y-123460000D03*
X47000000Y-126000000D03*
X47000000Y-123460000D03*
X49540000Y-126000000D03*
X49540000Y-123460000D03*
%TD*%
D12*
%TO.C,U104*%
X82500000Y-86500000D03*
D11*
X82500000Y-89040000D03*
X82500000Y-91580000D03*
X82500000Y-94120000D03*
X90120000Y-94120000D03*
X90120000Y-91580000D03*
X90120000Y-89040000D03*
X90120000Y-86500000D03*
%TD*%
D10*
%TO.C,R121*%
X97380000Y-100000000D03*
D11*
X87220000Y-100000000D03*
%TD*%
D14*
%TO.C,U10*%
X126430000Y-101890000D03*
X126430000Y-99350000D03*
X126430000Y-96810000D03*
X126430000Y-94270000D03*
X126430000Y-91730000D03*
X126430000Y-89190000D03*
X126430000Y-86650000D03*
X126430000Y-84110000D03*
X103570000Y-84110000D03*
X103570000Y-86650000D03*
X103570000Y-89190000D03*
X103570000Y-91730000D03*
X103570000Y-94270000D03*
X103570000Y-96810000D03*
X103570000Y-99350000D03*
X103570000Y-101890000D03*
%TD*%
D10*
%TO.C,R127*%
X106150000Y-121000000D03*
D11*
X106150000Y-110840000D03*
%TD*%
D10*
%TO.C,R115*%
X101920000Y-78000000D03*
D11*
X112080000Y-78000000D03*
%TD*%
D17*
%TO.C,D101*%
X44500000Y-110580000D03*
D18*
X44500000Y-100420000D03*
%TD*%
D14*
%TO.C,U101*%
X58430000Y-51790000D03*
X58430000Y-49250000D03*
X58430000Y-46710000D03*
X58430000Y-44170000D03*
X58430000Y-41630000D03*
X58430000Y-39090000D03*
X58430000Y-36550000D03*
X58430000Y-34010000D03*
X35570000Y-34010000D03*
X35570000Y-36550000D03*
X35570000Y-39090000D03*
X35570000Y-41630000D03*
X35570000Y-44170000D03*
X35570000Y-46710000D03*
X35570000Y-49250000D03*
X35570000Y-51790000D03*
%TD*%
D10*
%TO.C,C102*%
X59980000Y-71650000D03*
X59980000Y-74150000D03*
%TD*%
%TO.C,R112*%
X68200000Y-69550000D03*
D11*
X78360000Y-69550000D03*
%TD*%
D10*
%TO.C,R117*%
X50000000Y-110580000D03*
D11*
X50000000Y-100420000D03*
%TD*%
D10*
%TO.C,R124*%
X55000000Y-127000000D03*
D11*
X55000000Y-116840000D03*
%TD*%
D10*
%TO.C,R120*%
X78360000Y-90400000D03*
D11*
X68200000Y-90400000D03*
%TD*%
D19*
%TO.C,JP101*%
X67050000Y-127250000D03*
D20*
X65750000Y-127250000D03*
D21*
X64450000Y-127250000D03*
%TD*%
D10*
%TO.C,R122*%
X111150000Y-110840000D03*
D11*
X111150000Y-121000000D03*
%TD*%
D12*
%TO.C,U103*%
X48800000Y-65100000D03*
D11*
X48800000Y-67640000D03*
X48800000Y-70180000D03*
X48800000Y-72720000D03*
X56420000Y-72720000D03*
X56420000Y-70180000D03*
X56420000Y-67640000D03*
X56420000Y-65100000D03*
%TD*%
D15*
%TO.C,J103*%
X32500000Y-108425000D03*
D16*
X32500000Y-110965000D03*
X32500000Y-113505000D03*
X32500000Y-116045000D03*
X32500000Y-118585000D03*
%TD*%
D14*
%TO.C,J4*%
X57540000Y-127000000D03*
%TD*%
D10*
%TO.C,R113*%
X112080000Y-65500000D03*
D11*
X101920000Y-65500000D03*
%TD*%
D10*
%TO.C,R109*%
X68200000Y-65500000D03*
D11*
X78360000Y-65500000D03*
%TD*%
D10*
%TO.C,R107*%
X78360000Y-83400000D03*
D11*
X68200000Y-83400000D03*
%TD*%
D22*
%TO.C,H100*%
X46500000Y-33000000D03*
%TD*%
%TO.C,H102*%
X33450000Y-126350000D03*
%TD*%
D14*
%TO.C,J2*%
X87250000Y-112540000D03*
%TD*%
D10*
%TO.C,R108*%
X68200000Y-77900000D03*
D11*
X78360000Y-77900000D03*
%TD*%
D17*
%TO.C,D102*%
X116500000Y-121080000D03*
D18*
X116500000Y-110920000D03*
%TD*%
D10*
%TO.C,C104*%
X111460000Y-73500000D03*
X108960000Y-73500000D03*
%TD*%
D14*
%TO.C,U100*%
X90930000Y-51790000D03*
X90930000Y-49250000D03*
X90930000Y-46710000D03*
X90930000Y-44170000D03*
X90930000Y-41630000D03*
X90930000Y-39090000D03*
X90930000Y-36550000D03*
X90930000Y-34010000D03*
X68070000Y-34010000D03*
X68070000Y-36550000D03*
X68070000Y-39090000D03*
X68070000Y-41630000D03*
X68070000Y-44170000D03*
X68070000Y-46710000D03*
X68070000Y-49250000D03*
X68070000Y-51790000D03*
%TD*%
D15*
%TO.C,U109*%
X82452000Y-107722500D03*
D16*
X79912000Y-107722500D03*
X77372000Y-107722500D03*
X74832000Y-107722500D03*
X72292000Y-107722500D03*
X69752000Y-107722500D03*
%TD*%
D10*
%TO.C,C100*%
X60050000Y-65050000D03*
X60050000Y-67550000D03*
%TD*%
%TO.C,C113*%
X94780000Y-92650000D03*
X94780000Y-90150000D03*
%TD*%
%TO.C,C101*%
X45230000Y-72900000D03*
X42730000Y-72900000D03*
%TD*%
%TO.C,R126*%
X97380000Y-115080000D03*
D11*
X87220000Y-115080000D03*
%TD*%
D15*
%TO.C,J110*%
X114495000Y-126830000D03*
D16*
X117035000Y-126830000D03*
%TD*%
D10*
%TO.C,R101*%
X48750000Y-61000000D03*
D11*
X58910000Y-61000000D03*
%TD*%
D10*
%TO.C,R111*%
X82450000Y-77900000D03*
D11*
X92610000Y-77900000D03*
%TD*%
D10*
%TO.C,C111*%
X78030000Y-94400000D03*
X75530000Y-94400000D03*
%TD*%
%TO.C,R103*%
X68200000Y-61500000D03*
D11*
X78360000Y-61500000D03*
%TD*%
D17*
%TO.C,D100*%
X60250000Y-110580000D03*
D18*
X60250000Y-100420000D03*
%TD*%
D22*
%TO.C,H101*%
X113000000Y-33000000D03*
%TD*%
D10*
%TO.C,R128*%
X61250000Y-86320000D03*
D11*
X61250000Y-96480000D03*
%TD*%
D10*
%TO.C,R119*%
X97380000Y-105080000D03*
D11*
X87220000Y-105080000D03*
%TD*%
D10*
%TO.C,R102*%
X82450000Y-61500000D03*
D11*
X92610000Y-61500000D03*
%TD*%
D10*
%TO.C,R118*%
X54750000Y-110580000D03*
D11*
X54750000Y-100420000D03*
%TD*%
D10*
%TO.C,C110*%
X127500000Y-71750000D03*
X127500000Y-74250000D03*
%TD*%
%TO.C,R129*%
X41800000Y-86320000D03*
D11*
X41800000Y-96480000D03*
%TD*%
D15*
%TO.C,J102*%
X127750000Y-58250000D03*
%TD*%
D10*
%TO.C,C109*%
X127500000Y-65750000D03*
X127500000Y-68250000D03*
%TD*%
%TO.C,R110*%
X78360000Y-86900000D03*
D11*
X68200000Y-86900000D03*
%TD*%
D10*
%TO.C,C106*%
X94780000Y-85650000D03*
X94780000Y-83150000D03*
%TD*%
%TO.C,C105*%
X104250000Y-73600000D03*
X101750000Y-73600000D03*
%TD*%
%TO.C,R114*%
X112080000Y-69850000D03*
D11*
X101920000Y-69850000D03*
%TD*%
D10*
%TO.C,R123*%
X60160000Y-127000000D03*
D11*
X60080000Y-116840000D03*
%TD*%
D10*
%TO.C,R106*%
X45560000Y-64900000D03*
D11*
X35400000Y-64900000D03*
%TD*%
D12*
%TO.C,U106*%
X115970000Y-65700000D03*
D11*
X115970000Y-68240000D03*
X115970000Y-70780000D03*
X115970000Y-73320000D03*
X123590000Y-73320000D03*
X123590000Y-70780000D03*
X123590000Y-68240000D03*
X123590000Y-65700000D03*
%TD*%
D10*
%TO.C,R125*%
X97380000Y-110000000D03*
D11*
X87220000Y-110000000D03*
%TD*%
D15*
%TO.C,J100*%
X95250000Y-58250000D03*
%TD*%
D23*
%TO.C,U107*%
X38800000Y-73740000D03*
D24*
X38800000Y-76280000D03*
X38800000Y-78820000D03*
X38800000Y-81360000D03*
X38800000Y-83900000D03*
X38800000Y-86440000D03*
X38800000Y-88980000D03*
X38800000Y-91520000D03*
X38800000Y-94060000D03*
X38800000Y-96600000D03*
X38800000Y-99140000D03*
X38800000Y-101680000D03*
X38800000Y-104220000D03*
X38800000Y-106760000D03*
X38800000Y-109300000D03*
X38800000Y-111840000D03*
X38800000Y-114380000D03*
X38800000Y-116920000D03*
X38800000Y-119460000D03*
X64200000Y-73740000D03*
X64200000Y-76280000D03*
X64200000Y-78820000D03*
X64200000Y-81360000D03*
X64200000Y-83900000D03*
X64200000Y-86440000D03*
X64200000Y-88980000D03*
X64200000Y-91520000D03*
X64200000Y-94060000D03*
X64200000Y-96600000D03*
X64200000Y-99140000D03*
X64200000Y-101680000D03*
X64200000Y-104220000D03*
X64200000Y-106760000D03*
X64200000Y-109300000D03*
X64200000Y-111840000D03*
X64200000Y-114380000D03*
X64200000Y-116920000D03*
X64200000Y-119460000D03*
%TD*%
D22*
%TO.C,H2*%
X126250000Y-127000000D03*
%TD*%
D10*
%TO.C,C112*%
X71530000Y-94400000D03*
X69030000Y-94400000D03*
%TD*%
D15*
%TO.C,J108*%
X89925000Y-125950000D03*
D16*
X89925000Y-123410000D03*
X92465000Y-125950000D03*
X92465000Y-123410000D03*
X95005000Y-125950000D03*
X95005000Y-123410000D03*
X97545000Y-125950000D03*
X97545000Y-123410000D03*
X100085000Y-125950000D03*
X100085000Y-123410000D03*
%TD*%
D10*
%TO.C,R116*%
X126080000Y-78000000D03*
D11*
X115920000Y-78000000D03*
%TD*%
D10*
%TO.C,C103*%
X77750000Y-73500000D03*
X75250000Y-73500000D03*
%TD*%
D15*
%TO.C,J104*%
X32500000Y-93425000D03*
D16*
X35040000Y-93425000D03*
X32500000Y-95965000D03*
X35040000Y-95965000D03*
X32500000Y-98505000D03*
X35040000Y-98505000D03*
X32500000Y-101045000D03*
X35040000Y-101045000D03*
X32500000Y-103585000D03*
X35040000Y-103585000D03*
%TD*%
D15*
%TO.C,J109*%
X105495000Y-126830000D03*
D16*
X108035000Y-126830000D03*
%TD*%
D10*
%TO.C,R104*%
X112080000Y-61500000D03*
D11*
X101920000Y-61500000D03*
%TD*%
D10*
%TO.C,C108*%
X94500000Y-74750000D03*
X94500000Y-72250000D03*
%TD*%
D14*
%TO.C,J3*%
X87420000Y-102540000D03*
%TD*%
D15*
%TO.C,J101*%
X62000000Y-58250000D03*
%TD*%
D10*
%TO.C,R100*%
X35440000Y-61000000D03*
D11*
X45600000Y-61000000D03*
%TD*%
G36*
X128442121Y-111520002D02*
G01*
X128488614Y-111573658D01*
X128500000Y-111626000D01*
X128500000Y-123374000D01*
X128479998Y-123442121D01*
X128426342Y-123488614D01*
X128374000Y-123500000D01*
X119126000Y-123500000D01*
X119057879Y-123479998D01*
X119011386Y-123426342D01*
X119000000Y-123374000D01*
X119000000Y-111626000D01*
X119020002Y-111557879D01*
X119073658Y-111511386D01*
X119126000Y-111500000D01*
X128374000Y-111500000D01*
X128442121Y-111520002D01*
G37*
M02*
