%TF.GenerationSoftware,KiCad,Pcbnew,(6.0.10)*%
%TF.CreationDate,2023-03-01T13:20:10+01:00*%
%TF.ProjectId,Adapterboard,41646170-7465-4726-926f-6172642e6b69,2.3*%
%TF.SameCoordinates,Original*%
%TF.FileFunction,Drillmap*%
%TF.FilePolarity,Positive*%
%FSLAX45Y45*%
G04 Gerber Fmt 4.5, Leading zero omitted, Abs format (unit mm)*
G04 Created by KiCad (PCBNEW (6.0.10)) date 2023-03-01 13:20:10*
%MOMM*%
%LPD*%
G01*
G04 APERTURE LIST*
%ADD10C,0.050000*%
%ADD11C,0.200000*%
%ADD12C,0.040000*%
%ADD13C,0.080000*%
%ADD14C,0.100000*%
%ADD15C,0.104000*%
%ADD16C,0.110000*%
G04 APERTURE END LIST*
D10*
X3000000Y-3000000D02*
X13000000Y-3000000D01*
X13000000Y-3000000D02*
X13000000Y-13000000D01*
X13000000Y-13000000D02*
X3000000Y-13000000D01*
X3000000Y-13000000D02*
X3000000Y-3000000D01*
D11*
D12*
X3330000Y-4830000D02*
X3370000Y-4870000D01*
X3370000Y-4830000D02*
X3330000Y-4870000D01*
X3855000Y-3635000D02*
X3895000Y-3675000D01*
X3895000Y-3635000D02*
X3855000Y-3675000D01*
X4030000Y-12430000D02*
X4070000Y-12470000D01*
X4070000Y-12430000D02*
X4030000Y-12470000D01*
X4395000Y-8845000D02*
X4435000Y-8885000D01*
X4435000Y-8845000D02*
X4395000Y-8885000D01*
X4430000Y-11980000D02*
X4470000Y-12020000D01*
X4470000Y-11980000D02*
X4430000Y-12020000D01*
X4705000Y-5159000D02*
X4745000Y-5199000D01*
X4745000Y-5159000D02*
X4705000Y-5199000D01*
X5532500Y-3727500D02*
X5572500Y-3767500D01*
X5572500Y-3727500D02*
X5532500Y-3767500D01*
X6200000Y-12481450D02*
X6240000Y-12521450D01*
X6240000Y-12481450D02*
X6200000Y-12521450D01*
X6280000Y-4130000D02*
X6320000Y-4170000D01*
X6320000Y-4130000D02*
X6280000Y-4170000D01*
X6505000Y-3805000D02*
X6545000Y-3845000D01*
X6545000Y-3805000D02*
X6505000Y-3845000D01*
X6680000Y-10370000D02*
X6720000Y-10410000D01*
X6720000Y-10370000D02*
X6680000Y-10410000D01*
X6680000Y-10655000D02*
X6720000Y-10695000D01*
X6720000Y-10655000D02*
X6680000Y-10695000D01*
X7205000Y-5405000D02*
X7245000Y-5445000D01*
X7245000Y-5405000D02*
X7205000Y-5445000D01*
X7717500Y-11817500D02*
X7757500Y-11857500D01*
X7757500Y-11817500D02*
X7717500Y-11857500D01*
X7930000Y-11905000D02*
X7970000Y-11945000D01*
X7970000Y-11905000D02*
X7930000Y-11945000D01*
X7980000Y-8130000D02*
X8020000Y-8170000D01*
X8020000Y-8130000D02*
X7980000Y-8170000D01*
X8055000Y-5935000D02*
X8095000Y-5975000D01*
X8095000Y-5935000D02*
X8055000Y-5975000D01*
X8460000Y-11540000D02*
X8500000Y-11580000D01*
X8500000Y-11540000D02*
X8460000Y-11580000D01*
X9080000Y-10430000D02*
X9120000Y-10470000D01*
X9120000Y-10430000D02*
X9080000Y-10470000D01*
X9930000Y-11305000D02*
X9970000Y-11345000D01*
X9970000Y-11305000D02*
X9930000Y-11345000D01*
X10155000Y-11905000D02*
X10195000Y-11945000D01*
X10195000Y-11905000D02*
X10155000Y-11945000D01*
X10555000Y-4520000D02*
X10595000Y-4560000D01*
X10595000Y-4520000D02*
X10555000Y-4560000D01*
X12076500Y-10076500D02*
X12116500Y-10116500D01*
X12116500Y-10076500D02*
X12076500Y-10116500D01*
D13*
X3580000Y-6490000D02*
G75*
G03*
X3580000Y-6490000I-40000J0D01*
G01*
X3584000Y-6100000D02*
G75*
G03*
X3584000Y-6100000I-40000J0D01*
G01*
X3584000Y-6910000D02*
G75*
G03*
X3584000Y-6910000I-40000J0D01*
G01*
X3597000Y-3401000D02*
G75*
G03*
X3597000Y-3401000I-40000J0D01*
G01*
X3597000Y-3655000D02*
G75*
G03*
X3597000Y-3655000I-40000J0D01*
G01*
X3597000Y-3909000D02*
G75*
G03*
X3597000Y-3909000I-40000J0D01*
G01*
X3597000Y-4163000D02*
G75*
G03*
X3597000Y-4163000I-40000J0D01*
G01*
X3597000Y-4417000D02*
G75*
G03*
X3597000Y-4417000I-40000J0D01*
G01*
X3597000Y-4671000D02*
G75*
G03*
X3597000Y-4671000I-40000J0D01*
G01*
X3597000Y-4925000D02*
G75*
G03*
X3597000Y-4925000I-40000J0D01*
G01*
X3597000Y-5179000D02*
G75*
G03*
X3597000Y-5179000I-40000J0D01*
G01*
X4313000Y-7290000D02*
G75*
G03*
X4313000Y-7290000I-40000J0D01*
G01*
X4563000Y-7290000D02*
G75*
G03*
X4563000Y-7290000I-40000J0D01*
G01*
X4596000Y-6490000D02*
G75*
G03*
X4596000Y-6490000I-40000J0D01*
G01*
X4600000Y-6100000D02*
G75*
G03*
X4600000Y-6100000I-40000J0D01*
G01*
X4600000Y-6910000D02*
G75*
G03*
X4600000Y-6910000I-40000J0D01*
G01*
X4915000Y-6100000D02*
G75*
G03*
X4915000Y-6100000I-40000J0D01*
G01*
X4920000Y-6510000D02*
G75*
G03*
X4920000Y-6510000I-40000J0D01*
G01*
X4920000Y-6764000D02*
G75*
G03*
X4920000Y-6764000I-40000J0D01*
G01*
X4920000Y-7018000D02*
G75*
G03*
X4920000Y-7018000I-40000J0D01*
G01*
X4920000Y-7272000D02*
G75*
G03*
X4920000Y-7272000I-40000J0D01*
G01*
X5040000Y-10042000D02*
G75*
G03*
X5040000Y-10042000I-40000J0D01*
G01*
X5040000Y-11058000D02*
G75*
G03*
X5040000Y-11058000I-40000J0D01*
G01*
X5515000Y-10042000D02*
G75*
G03*
X5515000Y-10042000I-40000J0D01*
G01*
X5515000Y-11058000D02*
G75*
G03*
X5515000Y-11058000I-40000J0D01*
G01*
X5540000Y-11684000D02*
G75*
G03*
X5540000Y-11684000I-40000J0D01*
G01*
X5540000Y-12700000D02*
G75*
G03*
X5540000Y-12700000I-40000J0D01*
G01*
X5682000Y-6510000D02*
G75*
G03*
X5682000Y-6510000I-40000J0D01*
G01*
X5682000Y-6764000D02*
G75*
G03*
X5682000Y-6764000I-40000J0D01*
G01*
X5682000Y-7018000D02*
G75*
G03*
X5682000Y-7018000I-40000J0D01*
G01*
X5682000Y-7272000D02*
G75*
G03*
X5682000Y-7272000I-40000J0D01*
G01*
X5794000Y-12700000D02*
G75*
G03*
X5794000Y-12700000I-40000J0D01*
G01*
X5883000Y-3401000D02*
G75*
G03*
X5883000Y-3401000I-40000J0D01*
G01*
X5883000Y-3655000D02*
G75*
G03*
X5883000Y-3655000I-40000J0D01*
G01*
X5883000Y-3909000D02*
G75*
G03*
X5883000Y-3909000I-40000J0D01*
G01*
X5883000Y-4163000D02*
G75*
G03*
X5883000Y-4163000I-40000J0D01*
G01*
X5883000Y-4417000D02*
G75*
G03*
X5883000Y-4417000I-40000J0D01*
G01*
X5883000Y-4671000D02*
G75*
G03*
X5883000Y-4671000I-40000J0D01*
G01*
X5883000Y-4925000D02*
G75*
G03*
X5883000Y-4925000I-40000J0D01*
G01*
X5883000Y-5179000D02*
G75*
G03*
X5883000Y-5179000I-40000J0D01*
G01*
X5931000Y-6100000D02*
G75*
G03*
X5931000Y-6100000I-40000J0D01*
G01*
X6038000Y-7165000D02*
G75*
G03*
X6038000Y-7165000I-40000J0D01*
G01*
X6038000Y-7415000D02*
G75*
G03*
X6038000Y-7415000I-40000J0D01*
G01*
X6045000Y-6505000D02*
G75*
G03*
X6045000Y-6505000I-40000J0D01*
G01*
X6045000Y-6755000D02*
G75*
G03*
X6045000Y-6755000I-40000J0D01*
G01*
X6048000Y-11684000D02*
G75*
G03*
X6048000Y-11684000I-40000J0D01*
G01*
X6056000Y-12700000D02*
G75*
G03*
X6056000Y-12700000I-40000J0D01*
G01*
X6847000Y-3401000D02*
G75*
G03*
X6847000Y-3401000I-40000J0D01*
G01*
X6847000Y-3655000D02*
G75*
G03*
X6847000Y-3655000I-40000J0D01*
G01*
X6847000Y-3909000D02*
G75*
G03*
X6847000Y-3909000I-40000J0D01*
G01*
X6847000Y-4163000D02*
G75*
G03*
X6847000Y-4163000I-40000J0D01*
G01*
X6847000Y-4417000D02*
G75*
G03*
X6847000Y-4417000I-40000J0D01*
G01*
X6847000Y-4671000D02*
G75*
G03*
X6847000Y-4671000I-40000J0D01*
G01*
X6847000Y-4925000D02*
G75*
G03*
X6847000Y-4925000I-40000J0D01*
G01*
X6847000Y-5179000D02*
G75*
G03*
X6847000Y-5179000I-40000J0D01*
G01*
X6860000Y-6150000D02*
G75*
G03*
X6860000Y-6150000I-40000J0D01*
G01*
X6860000Y-6550000D02*
G75*
G03*
X6860000Y-6550000I-40000J0D01*
G01*
X6860000Y-6955000D02*
G75*
G03*
X6860000Y-6955000I-40000J0D01*
G01*
X6860000Y-7790000D02*
G75*
G03*
X6860000Y-7790000I-40000J0D01*
G01*
X6860000Y-8340000D02*
G75*
G03*
X6860000Y-8340000I-40000J0D01*
G01*
X6860000Y-8690000D02*
G75*
G03*
X6860000Y-8690000I-40000J0D01*
G01*
X6860000Y-9040000D02*
G75*
G03*
X6860000Y-9040000I-40000J0D01*
G01*
X6943000Y-9440000D02*
G75*
G03*
X6943000Y-9440000I-40000J0D01*
G01*
X7005000Y-9950000D02*
G75*
G03*
X7005000Y-9950000I-40000J0D01*
G01*
X7193000Y-9440000D02*
G75*
G03*
X7193000Y-9440000I-40000J0D01*
G01*
X7259000Y-9950000D02*
G75*
G03*
X7259000Y-9950000I-40000J0D01*
G01*
X7513000Y-9950000D02*
G75*
G03*
X7513000Y-9950000I-40000J0D01*
G01*
X7565000Y-7350000D02*
G75*
G03*
X7565000Y-7350000I-40000J0D01*
G01*
X7593000Y-9440000D02*
G75*
G03*
X7593000Y-9440000I-40000J0D01*
G01*
X7767000Y-9950000D02*
G75*
G03*
X7767000Y-9950000I-40000J0D01*
G01*
X7815000Y-7350000D02*
G75*
G03*
X7815000Y-7350000I-40000J0D01*
G01*
X7843000Y-9440000D02*
G75*
G03*
X7843000Y-9440000I-40000J0D01*
G01*
X7876000Y-6150000D02*
G75*
G03*
X7876000Y-6150000I-40000J0D01*
G01*
X7876000Y-6550000D02*
G75*
G03*
X7876000Y-6550000I-40000J0D01*
G01*
X7876000Y-6955000D02*
G75*
G03*
X7876000Y-6955000I-40000J0D01*
G01*
X7876000Y-7790000D02*
G75*
G03*
X7876000Y-7790000I-40000J0D01*
G01*
X7876000Y-8340000D02*
G75*
G03*
X7876000Y-8340000I-40000J0D01*
G01*
X7876000Y-8690000D02*
G75*
G03*
X7876000Y-8690000I-40000J0D01*
G01*
X7876000Y-9040000D02*
G75*
G03*
X7876000Y-9040000I-40000J0D01*
G01*
X8021000Y-9950000D02*
G75*
G03*
X8021000Y-9950000I-40000J0D01*
G01*
X8275000Y-9950000D02*
G75*
G03*
X8275000Y-9950000I-40000J0D01*
G01*
X8285000Y-6150000D02*
G75*
G03*
X8285000Y-6150000I-40000J0D01*
G01*
X8285000Y-7790000D02*
G75*
G03*
X8285000Y-7790000I-40000J0D01*
G01*
X8290000Y-6570000D02*
G75*
G03*
X8290000Y-6570000I-40000J0D01*
G01*
X8290000Y-6824000D02*
G75*
G03*
X8290000Y-6824000I-40000J0D01*
G01*
X8290000Y-7078000D02*
G75*
G03*
X8290000Y-7078000I-40000J0D01*
G01*
X8290000Y-7332000D02*
G75*
G03*
X8290000Y-7332000I-40000J0D01*
G01*
X8290000Y-8650000D02*
G75*
G03*
X8290000Y-8650000I-40000J0D01*
G01*
X8290000Y-8904000D02*
G75*
G03*
X8290000Y-8904000I-40000J0D01*
G01*
X8290000Y-9158000D02*
G75*
G03*
X8290000Y-9158000I-40000J0D01*
G01*
X8290000Y-9412000D02*
G75*
G03*
X8290000Y-9412000I-40000J0D01*
G01*
X8762000Y-10000000D02*
G75*
G03*
X8762000Y-10000000I-40000J0D01*
G01*
X8762000Y-10508000D02*
G75*
G03*
X8762000Y-10508000I-40000J0D01*
G01*
X8762000Y-11000000D02*
G75*
G03*
X8762000Y-11000000I-40000J0D01*
G01*
X8762000Y-11508000D02*
G75*
G03*
X8762000Y-11508000I-40000J0D01*
G01*
X8765000Y-11254000D02*
G75*
G03*
X8765000Y-11254000I-40000J0D01*
G01*
X8782000Y-10254000D02*
G75*
G03*
X8782000Y-10254000I-40000J0D01*
G01*
X9052000Y-6570000D02*
G75*
G03*
X9052000Y-6570000I-40000J0D01*
G01*
X9052000Y-6824000D02*
G75*
G03*
X9052000Y-6824000I-40000J0D01*
G01*
X9052000Y-7078000D02*
G75*
G03*
X9052000Y-7078000I-40000J0D01*
G01*
X9052000Y-7332000D02*
G75*
G03*
X9052000Y-7332000I-40000J0D01*
G01*
X9052000Y-8650000D02*
G75*
G03*
X9052000Y-8650000I-40000J0D01*
G01*
X9052000Y-8904000D02*
G75*
G03*
X9052000Y-8904000I-40000J0D01*
G01*
X9052000Y-9158000D02*
G75*
G03*
X9052000Y-9158000I-40000J0D01*
G01*
X9052000Y-9412000D02*
G75*
G03*
X9052000Y-9412000I-40000J0D01*
G01*
X9133000Y-3401000D02*
G75*
G03*
X9133000Y-3401000I-40000J0D01*
G01*
X9133000Y-3655000D02*
G75*
G03*
X9133000Y-3655000I-40000J0D01*
G01*
X9133000Y-3909000D02*
G75*
G03*
X9133000Y-3909000I-40000J0D01*
G01*
X9133000Y-4163000D02*
G75*
G03*
X9133000Y-4163000I-40000J0D01*
G01*
X9133000Y-4417000D02*
G75*
G03*
X9133000Y-4417000I-40000J0D01*
G01*
X9133000Y-4671000D02*
G75*
G03*
X9133000Y-4671000I-40000J0D01*
G01*
X9133000Y-4925000D02*
G75*
G03*
X9133000Y-4925000I-40000J0D01*
G01*
X9133000Y-5179000D02*
G75*
G03*
X9133000Y-5179000I-40000J0D01*
G01*
X9301000Y-6150000D02*
G75*
G03*
X9301000Y-6150000I-40000J0D01*
G01*
X9301000Y-7790000D02*
G75*
G03*
X9301000Y-7790000I-40000J0D01*
G01*
X9490000Y-6565000D02*
G75*
G03*
X9490000Y-6565000I-40000J0D01*
G01*
X9490000Y-6815000D02*
G75*
G03*
X9490000Y-6815000I-40000J0D01*
G01*
X9490000Y-7225000D02*
G75*
G03*
X9490000Y-7225000I-40000J0D01*
G01*
X9490000Y-7475000D02*
G75*
G03*
X9490000Y-7475000I-40000J0D01*
G01*
X9518000Y-8315000D02*
G75*
G03*
X9518000Y-8315000I-40000J0D01*
G01*
X9518000Y-8565000D02*
G75*
G03*
X9518000Y-8565000I-40000J0D01*
G01*
X9518000Y-9015000D02*
G75*
G03*
X9518000Y-9015000I-40000J0D01*
G01*
X9518000Y-9265000D02*
G75*
G03*
X9518000Y-9265000I-40000J0D01*
G01*
X9778000Y-10000000D02*
G75*
G03*
X9778000Y-10000000I-40000J0D01*
G01*
X9778000Y-10508000D02*
G75*
G03*
X9778000Y-10508000I-40000J0D01*
G01*
X9778000Y-11000000D02*
G75*
G03*
X9778000Y-11000000I-40000J0D01*
G01*
X9778000Y-11508000D02*
G75*
G03*
X9778000Y-11508000I-40000J0D01*
G01*
X10147000Y-3401000D02*
G75*
G03*
X10147000Y-3401000I-40000J0D01*
G01*
X10147000Y-3655000D02*
G75*
G03*
X10147000Y-3655000I-40000J0D01*
G01*
X10147000Y-3909000D02*
G75*
G03*
X10147000Y-3909000I-40000J0D01*
G01*
X10147000Y-4163000D02*
G75*
G03*
X10147000Y-4163000I-40000J0D01*
G01*
X10147000Y-4417000D02*
G75*
G03*
X10147000Y-4417000I-40000J0D01*
G01*
X10147000Y-4671000D02*
G75*
G03*
X10147000Y-4671000I-40000J0D01*
G01*
X10147000Y-4925000D02*
G75*
G03*
X10147000Y-4925000I-40000J0D01*
G01*
X10147000Y-5179000D02*
G75*
G03*
X10147000Y-5179000I-40000J0D01*
G01*
X10215000Y-7360000D02*
G75*
G03*
X10215000Y-7360000I-40000J0D01*
G01*
X10232000Y-6150000D02*
G75*
G03*
X10232000Y-6150000I-40000J0D01*
G01*
X10232000Y-6550000D02*
G75*
G03*
X10232000Y-6550000I-40000J0D01*
G01*
X10232000Y-6985000D02*
G75*
G03*
X10232000Y-6985000I-40000J0D01*
G01*
X10232000Y-7800000D02*
G75*
G03*
X10232000Y-7800000I-40000J0D01*
G01*
X10397000Y-8411000D02*
G75*
G03*
X10397000Y-8411000I-40000J0D01*
G01*
X10397000Y-8665000D02*
G75*
G03*
X10397000Y-8665000I-40000J0D01*
G01*
X10397000Y-8919000D02*
G75*
G03*
X10397000Y-8919000I-40000J0D01*
G01*
X10397000Y-9173000D02*
G75*
G03*
X10397000Y-9173000I-40000J0D01*
G01*
X10397000Y-9427000D02*
G75*
G03*
X10397000Y-9427000I-40000J0D01*
G01*
X10397000Y-9681000D02*
G75*
G03*
X10397000Y-9681000I-40000J0D01*
G01*
X10397000Y-9935000D02*
G75*
G03*
X10397000Y-9935000I-40000J0D01*
G01*
X10397000Y-10189000D02*
G75*
G03*
X10397000Y-10189000I-40000J0D01*
G01*
X10465000Y-7360000D02*
G75*
G03*
X10465000Y-7360000I-40000J0D01*
G01*
X10655000Y-11084000D02*
G75*
G03*
X10655000Y-11084000I-40000J0D01*
G01*
X10655000Y-12100000D02*
G75*
G03*
X10655000Y-12100000I-40000J0D01*
G01*
X10936000Y-7350000D02*
G75*
G03*
X10936000Y-7350000I-40000J0D01*
G01*
X11155000Y-11084000D02*
G75*
G03*
X11155000Y-11084000I-40000J0D01*
G01*
X11155000Y-12100000D02*
G75*
G03*
X11155000Y-12100000I-40000J0D01*
G01*
X11186000Y-7350000D02*
G75*
G03*
X11186000Y-7350000I-40000J0D01*
G01*
X11248000Y-6150000D02*
G75*
G03*
X11248000Y-6150000I-40000J0D01*
G01*
X11248000Y-6550000D02*
G75*
G03*
X11248000Y-6550000I-40000J0D01*
G01*
X11248000Y-6985000D02*
G75*
G03*
X11248000Y-6985000I-40000J0D01*
G01*
X11248000Y-7800000D02*
G75*
G03*
X11248000Y-7800000I-40000J0D01*
G01*
X11632000Y-7800000D02*
G75*
G03*
X11632000Y-7800000I-40000J0D01*
G01*
X11637000Y-6570000D02*
G75*
G03*
X11637000Y-6570000I-40000J0D01*
G01*
X11637000Y-6824000D02*
G75*
G03*
X11637000Y-6824000I-40000J0D01*
G01*
X11637000Y-7078000D02*
G75*
G03*
X11637000Y-7078000I-40000J0D01*
G01*
X11637000Y-7332000D02*
G75*
G03*
X11637000Y-7332000I-40000J0D01*
G01*
X12399000Y-6570000D02*
G75*
G03*
X12399000Y-6570000I-40000J0D01*
G01*
X12399000Y-6824000D02*
G75*
G03*
X12399000Y-6824000I-40000J0D01*
G01*
X12399000Y-7078000D02*
G75*
G03*
X12399000Y-7078000I-40000J0D01*
G01*
X12399000Y-7332000D02*
G75*
G03*
X12399000Y-7332000I-40000J0D01*
G01*
X12433000Y-3401000D02*
G75*
G03*
X12433000Y-3401000I-40000J0D01*
G01*
X12433000Y-3655000D02*
G75*
G03*
X12433000Y-3655000I-40000J0D01*
G01*
X12433000Y-3909000D02*
G75*
G03*
X12433000Y-3909000I-40000J0D01*
G01*
X12433000Y-4163000D02*
G75*
G03*
X12433000Y-4163000I-40000J0D01*
G01*
X12433000Y-4417000D02*
G75*
G03*
X12433000Y-4417000I-40000J0D01*
G01*
X12433000Y-4671000D02*
G75*
G03*
X12433000Y-4671000I-40000J0D01*
G01*
X12433000Y-4925000D02*
G75*
G03*
X12433000Y-4925000I-40000J0D01*
G01*
X12433000Y-5179000D02*
G75*
G03*
X12433000Y-5179000I-40000J0D01*
G01*
X12648000Y-7800000D02*
G75*
G03*
X12648000Y-7800000I-40000J0D01*
G01*
X12683000Y-8411000D02*
G75*
G03*
X12683000Y-8411000I-40000J0D01*
G01*
X12683000Y-8665000D02*
G75*
G03*
X12683000Y-8665000I-40000J0D01*
G01*
X12683000Y-8919000D02*
G75*
G03*
X12683000Y-8919000I-40000J0D01*
G01*
X12683000Y-9173000D02*
G75*
G03*
X12683000Y-9173000I-40000J0D01*
G01*
X12683000Y-9427000D02*
G75*
G03*
X12683000Y-9427000I-40000J0D01*
G01*
X12683000Y-9681000D02*
G75*
G03*
X12683000Y-9681000I-40000J0D01*
G01*
X12683000Y-9935000D02*
G75*
G03*
X12683000Y-9935000I-40000J0D01*
G01*
X12683000Y-10189000D02*
G75*
G03*
X12683000Y-10189000I-40000J0D01*
G01*
X12790000Y-6575000D02*
G75*
G03*
X12790000Y-6575000I-40000J0D01*
G01*
X12790000Y-6825000D02*
G75*
G03*
X12790000Y-6825000I-40000J0D01*
G01*
X12790000Y-7175000D02*
G75*
G03*
X12790000Y-7175000I-40000J0D01*
G01*
X12790000Y-7425000D02*
G75*
G03*
X12790000Y-7425000I-40000J0D01*
G01*
D14*
X3250000Y-9292500D02*
X3250000Y-9392500D01*
X3200000Y-9342500D02*
X3300000Y-9342500D01*
X3250000Y-9546500D02*
X3250000Y-9646500D01*
X3200000Y-9596500D02*
X3300000Y-9596500D01*
X3250000Y-9800500D02*
X3250000Y-9900500D01*
X3200000Y-9850500D02*
X3300000Y-9850500D01*
X3250000Y-10054500D02*
X3250000Y-10154500D01*
X3200000Y-10104500D02*
X3300000Y-10104500D01*
X3250000Y-10308500D02*
X3250000Y-10408500D01*
X3200000Y-10358500D02*
X3300000Y-10358500D01*
X3250000Y-10792500D02*
X3250000Y-10892500D01*
X3200000Y-10842500D02*
X3300000Y-10842500D01*
X3250000Y-11046500D02*
X3250000Y-11146500D01*
X3200000Y-11096500D02*
X3300000Y-11096500D01*
X3250000Y-11300500D02*
X3250000Y-11400500D01*
X3200000Y-11350500D02*
X3300000Y-11350500D01*
X3250000Y-11554500D02*
X3250000Y-11654500D01*
X3200000Y-11604500D02*
X3300000Y-11604500D01*
X3250000Y-11808500D02*
X3250000Y-11908500D01*
X3200000Y-11858500D02*
X3300000Y-11858500D01*
X3504000Y-9292500D02*
X3504000Y-9392500D01*
X3454000Y-9342500D02*
X3554000Y-9342500D01*
X3504000Y-9546500D02*
X3504000Y-9646500D01*
X3454000Y-9596500D02*
X3554000Y-9596500D01*
X3504000Y-9800500D02*
X3504000Y-9900500D01*
X3454000Y-9850500D02*
X3554000Y-9850500D01*
X3504000Y-10054500D02*
X3504000Y-10154500D01*
X3454000Y-10104500D02*
X3554000Y-10104500D01*
X3504000Y-10308500D02*
X3504000Y-10408500D01*
X3454000Y-10358500D02*
X3554000Y-10358500D01*
X6200000Y-5775000D02*
X6200000Y-5875000D01*
X6150000Y-5825000D02*
X6250000Y-5825000D01*
X6975200Y-10722250D02*
X6975200Y-10822250D01*
X6925200Y-10772250D02*
X7025200Y-10772250D01*
X7187500Y-12379000D02*
X7187500Y-12479000D01*
X7137500Y-12429000D02*
X7237500Y-12429000D01*
X7187500Y-12633000D02*
X7187500Y-12733000D01*
X7137500Y-12683000D02*
X7237500Y-12683000D01*
X7229200Y-10722250D02*
X7229200Y-10822250D01*
X7179200Y-10772250D02*
X7279200Y-10772250D01*
X7441500Y-12379000D02*
X7441500Y-12479000D01*
X7391500Y-12429000D02*
X7491500Y-12429000D01*
X7441500Y-12633000D02*
X7441500Y-12733000D01*
X7391500Y-12683000D02*
X7491500Y-12683000D01*
X7483200Y-10722250D02*
X7483200Y-10822250D01*
X7433200Y-10772250D02*
X7533200Y-10772250D01*
X7695500Y-12379000D02*
X7695500Y-12479000D01*
X7645500Y-12429000D02*
X7745500Y-12429000D01*
X7695500Y-12633000D02*
X7695500Y-12733000D01*
X7645500Y-12683000D02*
X7745500Y-12683000D01*
X7737200Y-10722250D02*
X7737200Y-10822250D01*
X7687200Y-10772250D02*
X7787200Y-10772250D01*
X7949500Y-12379000D02*
X7949500Y-12479000D01*
X7899500Y-12429000D02*
X7999500Y-12429000D01*
X7949500Y-12633000D02*
X7949500Y-12733000D01*
X7899500Y-12683000D02*
X7999500Y-12683000D01*
X7991200Y-10722250D02*
X7991200Y-10822250D01*
X7941200Y-10772250D02*
X8041200Y-10772250D01*
X8203500Y-12379000D02*
X8203500Y-12479000D01*
X8153500Y-12429000D02*
X8253500Y-12429000D01*
X8203500Y-12633000D02*
X8203500Y-12733000D01*
X8153500Y-12683000D02*
X8253500Y-12683000D01*
X8245200Y-10722250D02*
X8245200Y-10822250D01*
X8195200Y-10772250D02*
X8295200Y-10772250D01*
X8787500Y-12379000D02*
X8787500Y-12479000D01*
X8737500Y-12429000D02*
X8837500Y-12429000D01*
X8787500Y-12633000D02*
X8787500Y-12733000D01*
X8737500Y-12683000D02*
X8837500Y-12683000D01*
X9041500Y-12379000D02*
X9041500Y-12479000D01*
X8991500Y-12429000D02*
X9091500Y-12429000D01*
X9041500Y-12633000D02*
X9041500Y-12733000D01*
X8991500Y-12683000D02*
X9091500Y-12683000D01*
X9295500Y-12379000D02*
X9295500Y-12479000D01*
X9245500Y-12429000D02*
X9345500Y-12429000D01*
X9295500Y-12633000D02*
X9295500Y-12733000D01*
X9245500Y-12683000D02*
X9345500Y-12683000D01*
X9525000Y-5775000D02*
X9525000Y-5875000D01*
X9475000Y-5825000D02*
X9575000Y-5825000D01*
X9549500Y-12379000D02*
X9549500Y-12479000D01*
X9499500Y-12429000D02*
X9599500Y-12429000D01*
X9549500Y-12633000D02*
X9549500Y-12733000D01*
X9499500Y-12683000D02*
X9599500Y-12683000D01*
X9803500Y-12379000D02*
X9803500Y-12479000D01*
X9753500Y-12429000D02*
X9853500Y-12429000D01*
X9803500Y-12633000D02*
X9803500Y-12733000D01*
X9753500Y-12683000D02*
X9853500Y-12683000D01*
X10549500Y-12633000D02*
X10549500Y-12733000D01*
X10499500Y-12683000D02*
X10599500Y-12683000D01*
X10803500Y-12633000D02*
X10803500Y-12733000D01*
X10753500Y-12683000D02*
X10853500Y-12683000D01*
X11449500Y-12633000D02*
X11449500Y-12733000D01*
X11399500Y-12683000D02*
X11499500Y-12683000D01*
X11703500Y-12633000D02*
X11703500Y-12733000D01*
X11653500Y-12683000D02*
X11753500Y-12683000D01*
X12775000Y-5775000D02*
X12775000Y-5875000D01*
X12725000Y-5825000D02*
X12825000Y-5825000D01*
D15*
X3916770Y-7410770D02*
X3916770Y-7337230D01*
X3843230Y-7337230D01*
X3843230Y-7410770D01*
X3916770Y-7410770D01*
X3916770Y-7664770D02*
X3916770Y-7591230D01*
X3843230Y-7591230D01*
X3843230Y-7664770D01*
X3916770Y-7664770D01*
X3916770Y-7918770D02*
X3916770Y-7845230D01*
X3843230Y-7845230D01*
X3843230Y-7918770D01*
X3916770Y-7918770D01*
X3916770Y-8172770D02*
X3916770Y-8099230D01*
X3843230Y-8099230D01*
X3843230Y-8172770D01*
X3916770Y-8172770D01*
X3916770Y-8426770D02*
X3916770Y-8353230D01*
X3843230Y-8353230D01*
X3843230Y-8426770D01*
X3916770Y-8426770D01*
X3916770Y-8680770D02*
X3916770Y-8607230D01*
X3843230Y-8607230D01*
X3843230Y-8680770D01*
X3916770Y-8680770D01*
X3916770Y-8934770D02*
X3916770Y-8861230D01*
X3843230Y-8861230D01*
X3843230Y-8934770D01*
X3916770Y-8934770D01*
X3916770Y-9188770D02*
X3916770Y-9115230D01*
X3843230Y-9115230D01*
X3843230Y-9188770D01*
X3916770Y-9188770D01*
X3916770Y-9442770D02*
X3916770Y-9369230D01*
X3843230Y-9369230D01*
X3843230Y-9442770D01*
X3916770Y-9442770D01*
X3916770Y-9696770D02*
X3916770Y-9623230D01*
X3843230Y-9623230D01*
X3843230Y-9696770D01*
X3916770Y-9696770D01*
X3916770Y-9950770D02*
X3916770Y-9877230D01*
X3843230Y-9877230D01*
X3843230Y-9950770D01*
X3916770Y-9950770D01*
X3916770Y-10204770D02*
X3916770Y-10131230D01*
X3843230Y-10131230D01*
X3843230Y-10204770D01*
X3916770Y-10204770D01*
X3916770Y-10458770D02*
X3916770Y-10385230D01*
X3843230Y-10385230D01*
X3843230Y-10458770D01*
X3916770Y-10458770D01*
X3916770Y-10712770D02*
X3916770Y-10639230D01*
X3843230Y-10639230D01*
X3843230Y-10712770D01*
X3916770Y-10712770D01*
X3916770Y-10966770D02*
X3916770Y-10893230D01*
X3843230Y-10893230D01*
X3843230Y-10966770D01*
X3916770Y-10966770D01*
X3916770Y-11220770D02*
X3916770Y-11147230D01*
X3843230Y-11147230D01*
X3843230Y-11220770D01*
X3916770Y-11220770D01*
X3916770Y-11474770D02*
X3916770Y-11401230D01*
X3843230Y-11401230D01*
X3843230Y-11474770D01*
X3916770Y-11474770D01*
X3916770Y-11728770D02*
X3916770Y-11655230D01*
X3843230Y-11655230D01*
X3843230Y-11728770D01*
X3916770Y-11728770D01*
X3916770Y-11982770D02*
X3916770Y-11909230D01*
X3843230Y-11909230D01*
X3843230Y-11982770D01*
X3916770Y-11982770D01*
X6456770Y-7410770D02*
X6456770Y-7337230D01*
X6383230Y-7337230D01*
X6383230Y-7410770D01*
X6456770Y-7410770D01*
X6456770Y-7664770D02*
X6456770Y-7591230D01*
X6383230Y-7591230D01*
X6383230Y-7664770D01*
X6456770Y-7664770D01*
X6456770Y-7918770D02*
X6456770Y-7845230D01*
X6383230Y-7845230D01*
X6383230Y-7918770D01*
X6456770Y-7918770D01*
X6456770Y-8172770D02*
X6456770Y-8099230D01*
X6383230Y-8099230D01*
X6383230Y-8172770D01*
X6456770Y-8172770D01*
X6456770Y-8426770D02*
X6456770Y-8353230D01*
X6383230Y-8353230D01*
X6383230Y-8426770D01*
X6456770Y-8426770D01*
X6456770Y-8680770D02*
X6456770Y-8607230D01*
X6383230Y-8607230D01*
X6383230Y-8680770D01*
X6456770Y-8680770D01*
X6456770Y-8934770D02*
X6456770Y-8861230D01*
X6383230Y-8861230D01*
X6383230Y-8934770D01*
X6456770Y-8934770D01*
X6456770Y-9188770D02*
X6456770Y-9115230D01*
X6383230Y-9115230D01*
X6383230Y-9188770D01*
X6456770Y-9188770D01*
X6456770Y-9442770D02*
X6456770Y-9369230D01*
X6383230Y-9369230D01*
X6383230Y-9442770D01*
X6456770Y-9442770D01*
X6456770Y-9696770D02*
X6456770Y-9623230D01*
X6383230Y-9623230D01*
X6383230Y-9696770D01*
X6456770Y-9696770D01*
X6456770Y-9950770D02*
X6456770Y-9877230D01*
X6383230Y-9877230D01*
X6383230Y-9950770D01*
X6456770Y-9950770D01*
X6456770Y-10204770D02*
X6456770Y-10131230D01*
X6383230Y-10131230D01*
X6383230Y-10204770D01*
X6456770Y-10204770D01*
X6456770Y-10458770D02*
X6456770Y-10385230D01*
X6383230Y-10385230D01*
X6383230Y-10458770D01*
X6456770Y-10458770D01*
X6456770Y-10712770D02*
X6456770Y-10639230D01*
X6383230Y-10639230D01*
X6383230Y-10712770D01*
X6456770Y-10712770D01*
X6456770Y-10966770D02*
X6456770Y-10893230D01*
X6383230Y-10893230D01*
X6383230Y-10966770D01*
X6456770Y-10966770D01*
X6456770Y-11220770D02*
X6456770Y-11147230D01*
X6383230Y-11147230D01*
X6383230Y-11220770D01*
X6456770Y-11220770D01*
X6456770Y-11474770D02*
X6456770Y-11401230D01*
X6383230Y-11401230D01*
X6383230Y-11474770D01*
X6456770Y-11474770D01*
X6456770Y-11728770D02*
X6456770Y-11655230D01*
X6383230Y-11655230D01*
X6383230Y-11728770D01*
X6456770Y-11728770D01*
X6456770Y-11982770D02*
X6456770Y-11909230D01*
X6383230Y-11909230D01*
X6383230Y-11982770D01*
X6456770Y-11982770D01*
D16*
X4450000Y-10097000D02*
X4505000Y-10042000D01*
X4450000Y-9987000D01*
X4395000Y-10042000D01*
X4450000Y-10097000D01*
X4450000Y-11113000D02*
X4505000Y-11058000D01*
X4450000Y-11003000D01*
X4395000Y-11058000D01*
X4450000Y-11113000D01*
X6025000Y-10097000D02*
X6080000Y-10042000D01*
X6025000Y-9987000D01*
X5970000Y-10042000D01*
X6025000Y-10097000D01*
X6025000Y-11113000D02*
X6080000Y-11058000D01*
X6025000Y-11003000D01*
X5970000Y-11058000D01*
X6025000Y-11113000D01*
X11650000Y-11147000D02*
X11705000Y-11092000D01*
X11650000Y-11037000D01*
X11595000Y-11092000D01*
X11650000Y-11147000D01*
X11650000Y-12163000D02*
X11705000Y-12108000D01*
X11650000Y-12053000D01*
X11595000Y-12108000D01*
X11650000Y-12163000D01*
D11*
X3255119Y-13312976D02*
X3255119Y-13112976D01*
X3302738Y-13112976D01*
X3331309Y-13122500D01*
X3350357Y-13141548D01*
X3359881Y-13160595D01*
X3369405Y-13198690D01*
X3369405Y-13227262D01*
X3359881Y-13265357D01*
X3350357Y-13284405D01*
X3331309Y-13303452D01*
X3302738Y-13312976D01*
X3255119Y-13312976D01*
X3455119Y-13312976D02*
X3455119Y-13179643D01*
X3455119Y-13217738D02*
X3464643Y-13198690D01*
X3474167Y-13189167D01*
X3493214Y-13179643D01*
X3512262Y-13179643D01*
X3578928Y-13312976D02*
X3578928Y-13179643D01*
X3578928Y-13112976D02*
X3569405Y-13122500D01*
X3578928Y-13132024D01*
X3588452Y-13122500D01*
X3578928Y-13112976D01*
X3578928Y-13132024D01*
X3702738Y-13312976D02*
X3683690Y-13303452D01*
X3674167Y-13284405D01*
X3674167Y-13112976D01*
X3807500Y-13312976D02*
X3788452Y-13303452D01*
X3778928Y-13284405D01*
X3778928Y-13112976D01*
X4036071Y-13312976D02*
X4036071Y-13112976D01*
X4102738Y-13255833D01*
X4169405Y-13112976D01*
X4169405Y-13312976D01*
X4350357Y-13312976D02*
X4350357Y-13208214D01*
X4340833Y-13189167D01*
X4321786Y-13179643D01*
X4283690Y-13179643D01*
X4264643Y-13189167D01*
X4350357Y-13303452D02*
X4331310Y-13312976D01*
X4283690Y-13312976D01*
X4264643Y-13303452D01*
X4255119Y-13284405D01*
X4255119Y-13265357D01*
X4264643Y-13246309D01*
X4283690Y-13236786D01*
X4331310Y-13236786D01*
X4350357Y-13227262D01*
X4445595Y-13179643D02*
X4445595Y-13379643D01*
X4445595Y-13189167D02*
X4464643Y-13179643D01*
X4502738Y-13179643D01*
X4521786Y-13189167D01*
X4531310Y-13198690D01*
X4540833Y-13217738D01*
X4540833Y-13274881D01*
X4531310Y-13293928D01*
X4521786Y-13303452D01*
X4502738Y-13312976D01*
X4464643Y-13312976D01*
X4445595Y-13303452D01*
X4626548Y-13293928D02*
X4636071Y-13303452D01*
X4626548Y-13312976D01*
X4617024Y-13303452D01*
X4626548Y-13293928D01*
X4626548Y-13312976D01*
X4626548Y-13189167D02*
X4636071Y-13198690D01*
X4626548Y-13208214D01*
X4617024Y-13198690D01*
X4626548Y-13189167D01*
X4626548Y-13208214D01*
D12*
X2957500Y-13622500D02*
X2997500Y-13662500D01*
X2997500Y-13622500D02*
X2957500Y-13662500D01*
D11*
X3293214Y-13532976D02*
X3312262Y-13532976D01*
X3331309Y-13542500D01*
X3340833Y-13552024D01*
X3350357Y-13571071D01*
X3359881Y-13609167D01*
X3359881Y-13656786D01*
X3350357Y-13694881D01*
X3340833Y-13713928D01*
X3331309Y-13723452D01*
X3312262Y-13732976D01*
X3293214Y-13732976D01*
X3274167Y-13723452D01*
X3264643Y-13713928D01*
X3255119Y-13694881D01*
X3245595Y-13656786D01*
X3245595Y-13609167D01*
X3255119Y-13571071D01*
X3264643Y-13552024D01*
X3274167Y-13542500D01*
X3293214Y-13532976D01*
X3445595Y-13713928D02*
X3455119Y-13723452D01*
X3445595Y-13732976D01*
X3436071Y-13723452D01*
X3445595Y-13713928D01*
X3445595Y-13732976D01*
X3626548Y-13599643D02*
X3626548Y-13732976D01*
X3578928Y-13523452D02*
X3531309Y-13666309D01*
X3655119Y-13666309D01*
X3769405Y-13532976D02*
X3788452Y-13532976D01*
X3807500Y-13542500D01*
X3817024Y-13552024D01*
X3826548Y-13571071D01*
X3836071Y-13609167D01*
X3836071Y-13656786D01*
X3826548Y-13694881D01*
X3817024Y-13713928D01*
X3807500Y-13723452D01*
X3788452Y-13732976D01*
X3769405Y-13732976D01*
X3750357Y-13723452D01*
X3740833Y-13713928D01*
X3731309Y-13694881D01*
X3721786Y-13656786D01*
X3721786Y-13609167D01*
X3731309Y-13571071D01*
X3740833Y-13552024D01*
X3750357Y-13542500D01*
X3769405Y-13532976D01*
X3959881Y-13532976D02*
X3978928Y-13532976D01*
X3997976Y-13542500D01*
X4007500Y-13552024D01*
X4017024Y-13571071D01*
X4026548Y-13609167D01*
X4026548Y-13656786D01*
X4017024Y-13694881D01*
X4007500Y-13713928D01*
X3997976Y-13723452D01*
X3978928Y-13732976D01*
X3959881Y-13732976D01*
X3940833Y-13723452D01*
X3931309Y-13713928D01*
X3921786Y-13694881D01*
X3912262Y-13656786D01*
X3912262Y-13609167D01*
X3921786Y-13571071D01*
X3931309Y-13552024D01*
X3940833Y-13542500D01*
X3959881Y-13532976D01*
X4112262Y-13732976D02*
X4112262Y-13599643D01*
X4112262Y-13618690D02*
X4121786Y-13609167D01*
X4140833Y-13599643D01*
X4169405Y-13599643D01*
X4188452Y-13609167D01*
X4197976Y-13628214D01*
X4197976Y-13732976D01*
X4197976Y-13628214D02*
X4207500Y-13609167D01*
X4226548Y-13599643D01*
X4255119Y-13599643D01*
X4274167Y-13609167D01*
X4283690Y-13628214D01*
X4283690Y-13732976D01*
X4378929Y-13732976D02*
X4378929Y-13599643D01*
X4378929Y-13618690D02*
X4388452Y-13609167D01*
X4407500Y-13599643D01*
X4436071Y-13599643D01*
X4455119Y-13609167D01*
X4464643Y-13628214D01*
X4464643Y-13732976D01*
X4464643Y-13628214D02*
X4474167Y-13609167D01*
X4493214Y-13599643D01*
X4521786Y-13599643D01*
X4540833Y-13609167D01*
X4550357Y-13628214D01*
X4550357Y-13732976D01*
X4940833Y-13523452D02*
X4769405Y-13780595D01*
X5197976Y-13532976D02*
X5217024Y-13532976D01*
X5236071Y-13542500D01*
X5245595Y-13552024D01*
X5255119Y-13571071D01*
X5264643Y-13609167D01*
X5264643Y-13656786D01*
X5255119Y-13694881D01*
X5245595Y-13713928D01*
X5236071Y-13723452D01*
X5217024Y-13732976D01*
X5197976Y-13732976D01*
X5178929Y-13723452D01*
X5169405Y-13713928D01*
X5159881Y-13694881D01*
X5150357Y-13656786D01*
X5150357Y-13609167D01*
X5159881Y-13571071D01*
X5169405Y-13552024D01*
X5178929Y-13542500D01*
X5197976Y-13532976D01*
X5350357Y-13713928D02*
X5359881Y-13723452D01*
X5350357Y-13732976D01*
X5340833Y-13723452D01*
X5350357Y-13713928D01*
X5350357Y-13732976D01*
X5483690Y-13532976D02*
X5502738Y-13532976D01*
X5521786Y-13542500D01*
X5531310Y-13552024D01*
X5540833Y-13571071D01*
X5550357Y-13609167D01*
X5550357Y-13656786D01*
X5540833Y-13694881D01*
X5531310Y-13713928D01*
X5521786Y-13723452D01*
X5502738Y-13732976D01*
X5483690Y-13732976D01*
X5464643Y-13723452D01*
X5455119Y-13713928D01*
X5445595Y-13694881D01*
X5436071Y-13656786D01*
X5436071Y-13609167D01*
X5445595Y-13571071D01*
X5455119Y-13552024D01*
X5464643Y-13542500D01*
X5483690Y-13532976D01*
X5740833Y-13732976D02*
X5626548Y-13732976D01*
X5683690Y-13732976D02*
X5683690Y-13532976D01*
X5664643Y-13561548D01*
X5645595Y-13580595D01*
X5626548Y-13590119D01*
X5921786Y-13532976D02*
X5826548Y-13532976D01*
X5817024Y-13628214D01*
X5826548Y-13618690D01*
X5845595Y-13609167D01*
X5893214Y-13609167D01*
X5912262Y-13618690D01*
X5921786Y-13628214D01*
X5931309Y-13647262D01*
X5931309Y-13694881D01*
X5921786Y-13713928D01*
X5912262Y-13723452D01*
X5893214Y-13732976D01*
X5845595Y-13732976D01*
X5826548Y-13723452D01*
X5817024Y-13713928D01*
X5997976Y-13532976D02*
X6131309Y-13532976D01*
X6045595Y-13732976D01*
X6197976Y-13532976D02*
X6197976Y-13571071D01*
X6274167Y-13532976D02*
X6274167Y-13571071D01*
X6569405Y-13809167D02*
X6559881Y-13799643D01*
X6540833Y-13771071D01*
X6531309Y-13752024D01*
X6521786Y-13723452D01*
X6512262Y-13675833D01*
X6512262Y-13637738D01*
X6521786Y-13590119D01*
X6531309Y-13561548D01*
X6540833Y-13542500D01*
X6559881Y-13513928D01*
X6569405Y-13504405D01*
X6636071Y-13552024D02*
X6645595Y-13542500D01*
X6664643Y-13532976D01*
X6712262Y-13532976D01*
X6731309Y-13542500D01*
X6740833Y-13552024D01*
X6750357Y-13571071D01*
X6750357Y-13590119D01*
X6740833Y-13618690D01*
X6626548Y-13732976D01*
X6750357Y-13732976D01*
X6817024Y-13532976D02*
X6940833Y-13532976D01*
X6874167Y-13609167D01*
X6902738Y-13609167D01*
X6921786Y-13618690D01*
X6931309Y-13628214D01*
X6940833Y-13647262D01*
X6940833Y-13694881D01*
X6931309Y-13713928D01*
X6921786Y-13723452D01*
X6902738Y-13732976D01*
X6845595Y-13732976D01*
X6826548Y-13723452D01*
X6817024Y-13713928D01*
X7178928Y-13732976D02*
X7178928Y-13532976D01*
X7264643Y-13732976D02*
X7264643Y-13628214D01*
X7255119Y-13609167D01*
X7236071Y-13599643D01*
X7207500Y-13599643D01*
X7188452Y-13609167D01*
X7178928Y-13618690D01*
X7388452Y-13732976D02*
X7369405Y-13723452D01*
X7359881Y-13713928D01*
X7350357Y-13694881D01*
X7350357Y-13637738D01*
X7359881Y-13618690D01*
X7369405Y-13609167D01*
X7388452Y-13599643D01*
X7417024Y-13599643D01*
X7436071Y-13609167D01*
X7445595Y-13618690D01*
X7455119Y-13637738D01*
X7455119Y-13694881D01*
X7445595Y-13713928D01*
X7436071Y-13723452D01*
X7417024Y-13732976D01*
X7388452Y-13732976D01*
X7569405Y-13732976D02*
X7550357Y-13723452D01*
X7540833Y-13704405D01*
X7540833Y-13532976D01*
X7721786Y-13723452D02*
X7702738Y-13732976D01*
X7664643Y-13732976D01*
X7645595Y-13723452D01*
X7636071Y-13704405D01*
X7636071Y-13628214D01*
X7645595Y-13609167D01*
X7664643Y-13599643D01*
X7702738Y-13599643D01*
X7721786Y-13609167D01*
X7731309Y-13628214D01*
X7731309Y-13647262D01*
X7636071Y-13666309D01*
X7807500Y-13723452D02*
X7826548Y-13732976D01*
X7864643Y-13732976D01*
X7883690Y-13723452D01*
X7893214Y-13704405D01*
X7893214Y-13694881D01*
X7883690Y-13675833D01*
X7864643Y-13666309D01*
X7836071Y-13666309D01*
X7817024Y-13656786D01*
X7807500Y-13637738D01*
X7807500Y-13628214D01*
X7817024Y-13609167D01*
X7836071Y-13599643D01*
X7864643Y-13599643D01*
X7883690Y-13609167D01*
X7959881Y-13809167D02*
X7969405Y-13799643D01*
X7988452Y-13771071D01*
X7997976Y-13752024D01*
X8007500Y-13723452D01*
X8017024Y-13675833D01*
X8017024Y-13637738D01*
X8007500Y-13590119D01*
X7997976Y-13561548D01*
X7988452Y-13542500D01*
X7969405Y-13513928D01*
X7959881Y-13504405D01*
D13*
X2997500Y-13906500D02*
G75*
G03*
X2997500Y-13906500I-40000J0D01*
G01*
D11*
X3293214Y-13796976D02*
X3312262Y-13796976D01*
X3331309Y-13806500D01*
X3340833Y-13816024D01*
X3350357Y-13835071D01*
X3359881Y-13873167D01*
X3359881Y-13920786D01*
X3350357Y-13958881D01*
X3340833Y-13977928D01*
X3331309Y-13987452D01*
X3312262Y-13996976D01*
X3293214Y-13996976D01*
X3274167Y-13987452D01*
X3264643Y-13977928D01*
X3255119Y-13958881D01*
X3245595Y-13920786D01*
X3245595Y-13873167D01*
X3255119Y-13835071D01*
X3264643Y-13816024D01*
X3274167Y-13806500D01*
X3293214Y-13796976D01*
X3445595Y-13977928D02*
X3455119Y-13987452D01*
X3445595Y-13996976D01*
X3436071Y-13987452D01*
X3445595Y-13977928D01*
X3445595Y-13996976D01*
X3569405Y-13882690D02*
X3550357Y-13873167D01*
X3540833Y-13863643D01*
X3531309Y-13844595D01*
X3531309Y-13835071D01*
X3540833Y-13816024D01*
X3550357Y-13806500D01*
X3569405Y-13796976D01*
X3607500Y-13796976D01*
X3626548Y-13806500D01*
X3636071Y-13816024D01*
X3645595Y-13835071D01*
X3645595Y-13844595D01*
X3636071Y-13863643D01*
X3626548Y-13873167D01*
X3607500Y-13882690D01*
X3569405Y-13882690D01*
X3550357Y-13892214D01*
X3540833Y-13901738D01*
X3531309Y-13920786D01*
X3531309Y-13958881D01*
X3540833Y-13977928D01*
X3550357Y-13987452D01*
X3569405Y-13996976D01*
X3607500Y-13996976D01*
X3626548Y-13987452D01*
X3636071Y-13977928D01*
X3645595Y-13958881D01*
X3645595Y-13920786D01*
X3636071Y-13901738D01*
X3626548Y-13892214D01*
X3607500Y-13882690D01*
X3769405Y-13796976D02*
X3788452Y-13796976D01*
X3807500Y-13806500D01*
X3817024Y-13816024D01*
X3826548Y-13835071D01*
X3836071Y-13873167D01*
X3836071Y-13920786D01*
X3826548Y-13958881D01*
X3817024Y-13977928D01*
X3807500Y-13987452D01*
X3788452Y-13996976D01*
X3769405Y-13996976D01*
X3750357Y-13987452D01*
X3740833Y-13977928D01*
X3731309Y-13958881D01*
X3721786Y-13920786D01*
X3721786Y-13873167D01*
X3731309Y-13835071D01*
X3740833Y-13816024D01*
X3750357Y-13806500D01*
X3769405Y-13796976D01*
X3959881Y-13796976D02*
X3978928Y-13796976D01*
X3997976Y-13806500D01*
X4007500Y-13816024D01*
X4017024Y-13835071D01*
X4026548Y-13873167D01*
X4026548Y-13920786D01*
X4017024Y-13958881D01*
X4007500Y-13977928D01*
X3997976Y-13987452D01*
X3978928Y-13996976D01*
X3959881Y-13996976D01*
X3940833Y-13987452D01*
X3931309Y-13977928D01*
X3921786Y-13958881D01*
X3912262Y-13920786D01*
X3912262Y-13873167D01*
X3921786Y-13835071D01*
X3931309Y-13816024D01*
X3940833Y-13806500D01*
X3959881Y-13796976D01*
X4112262Y-13996976D02*
X4112262Y-13863643D01*
X4112262Y-13882690D02*
X4121786Y-13873167D01*
X4140833Y-13863643D01*
X4169405Y-13863643D01*
X4188452Y-13873167D01*
X4197976Y-13892214D01*
X4197976Y-13996976D01*
X4197976Y-13892214D02*
X4207500Y-13873167D01*
X4226548Y-13863643D01*
X4255119Y-13863643D01*
X4274167Y-13873167D01*
X4283690Y-13892214D01*
X4283690Y-13996976D01*
X4378929Y-13996976D02*
X4378929Y-13863643D01*
X4378929Y-13882690D02*
X4388452Y-13873167D01*
X4407500Y-13863643D01*
X4436071Y-13863643D01*
X4455119Y-13873167D01*
X4464643Y-13892214D01*
X4464643Y-13996976D01*
X4464643Y-13892214D02*
X4474167Y-13873167D01*
X4493214Y-13863643D01*
X4521786Y-13863643D01*
X4540833Y-13873167D01*
X4550357Y-13892214D01*
X4550357Y-13996976D01*
X4940833Y-13787452D02*
X4769405Y-14044595D01*
X5197976Y-13796976D02*
X5217024Y-13796976D01*
X5236071Y-13806500D01*
X5245595Y-13816024D01*
X5255119Y-13835071D01*
X5264643Y-13873167D01*
X5264643Y-13920786D01*
X5255119Y-13958881D01*
X5245595Y-13977928D01*
X5236071Y-13987452D01*
X5217024Y-13996976D01*
X5197976Y-13996976D01*
X5178929Y-13987452D01*
X5169405Y-13977928D01*
X5159881Y-13958881D01*
X5150357Y-13920786D01*
X5150357Y-13873167D01*
X5159881Y-13835071D01*
X5169405Y-13816024D01*
X5178929Y-13806500D01*
X5197976Y-13796976D01*
X5350357Y-13977928D02*
X5359881Y-13987452D01*
X5350357Y-13996976D01*
X5340833Y-13987452D01*
X5350357Y-13977928D01*
X5350357Y-13996976D01*
X5483690Y-13796976D02*
X5502738Y-13796976D01*
X5521786Y-13806500D01*
X5531310Y-13816024D01*
X5540833Y-13835071D01*
X5550357Y-13873167D01*
X5550357Y-13920786D01*
X5540833Y-13958881D01*
X5531310Y-13977928D01*
X5521786Y-13987452D01*
X5502738Y-13996976D01*
X5483690Y-13996976D01*
X5464643Y-13987452D01*
X5455119Y-13977928D01*
X5445595Y-13958881D01*
X5436071Y-13920786D01*
X5436071Y-13873167D01*
X5445595Y-13835071D01*
X5455119Y-13816024D01*
X5464643Y-13806500D01*
X5483690Y-13796976D01*
X5617024Y-13796976D02*
X5740833Y-13796976D01*
X5674167Y-13873167D01*
X5702738Y-13873167D01*
X5721786Y-13882690D01*
X5731309Y-13892214D01*
X5740833Y-13911262D01*
X5740833Y-13958881D01*
X5731309Y-13977928D01*
X5721786Y-13987452D01*
X5702738Y-13996976D01*
X5645595Y-13996976D01*
X5626548Y-13987452D01*
X5617024Y-13977928D01*
X5931309Y-13996976D02*
X5817024Y-13996976D01*
X5874167Y-13996976D02*
X5874167Y-13796976D01*
X5855119Y-13825548D01*
X5836071Y-13844595D01*
X5817024Y-13854119D01*
X6112262Y-13796976D02*
X6017024Y-13796976D01*
X6007500Y-13892214D01*
X6017024Y-13882690D01*
X6036071Y-13873167D01*
X6083690Y-13873167D01*
X6102738Y-13882690D01*
X6112262Y-13892214D01*
X6121786Y-13911262D01*
X6121786Y-13958881D01*
X6112262Y-13977928D01*
X6102738Y-13987452D01*
X6083690Y-13996976D01*
X6036071Y-13996976D01*
X6017024Y-13987452D01*
X6007500Y-13977928D01*
X6197976Y-13796976D02*
X6197976Y-13835071D01*
X6274167Y-13796976D02*
X6274167Y-13835071D01*
X6569405Y-14073167D02*
X6559881Y-14063643D01*
X6540833Y-14035071D01*
X6531309Y-14016024D01*
X6521786Y-13987452D01*
X6512262Y-13939833D01*
X6512262Y-13901738D01*
X6521786Y-13854119D01*
X6531309Y-13825548D01*
X6540833Y-13806500D01*
X6559881Y-13777928D01*
X6569405Y-13768405D01*
X6750357Y-13996976D02*
X6636071Y-13996976D01*
X6693214Y-13996976D02*
X6693214Y-13796976D01*
X6674167Y-13825548D01*
X6655119Y-13844595D01*
X6636071Y-13854119D01*
X6864643Y-13882690D02*
X6845595Y-13873167D01*
X6836071Y-13863643D01*
X6826548Y-13844595D01*
X6826548Y-13835071D01*
X6836071Y-13816024D01*
X6845595Y-13806500D01*
X6864643Y-13796976D01*
X6902738Y-13796976D01*
X6921786Y-13806500D01*
X6931309Y-13816024D01*
X6940833Y-13835071D01*
X6940833Y-13844595D01*
X6931309Y-13863643D01*
X6921786Y-13873167D01*
X6902738Y-13882690D01*
X6864643Y-13882690D01*
X6845595Y-13892214D01*
X6836071Y-13901738D01*
X6826548Y-13920786D01*
X6826548Y-13958881D01*
X6836071Y-13977928D01*
X6845595Y-13987452D01*
X6864643Y-13996976D01*
X6902738Y-13996976D01*
X6921786Y-13987452D01*
X6931309Y-13977928D01*
X6940833Y-13958881D01*
X6940833Y-13920786D01*
X6931309Y-13901738D01*
X6921786Y-13892214D01*
X6902738Y-13882690D01*
X7036071Y-13996976D02*
X7074167Y-13996976D01*
X7093214Y-13987452D01*
X7102738Y-13977928D01*
X7121786Y-13949357D01*
X7131309Y-13911262D01*
X7131309Y-13835071D01*
X7121786Y-13816024D01*
X7112262Y-13806500D01*
X7093214Y-13796976D01*
X7055119Y-13796976D01*
X7036071Y-13806500D01*
X7026548Y-13816024D01*
X7017024Y-13835071D01*
X7017024Y-13882690D01*
X7026548Y-13901738D01*
X7036071Y-13911262D01*
X7055119Y-13920786D01*
X7093214Y-13920786D01*
X7112262Y-13911262D01*
X7121786Y-13901738D01*
X7131309Y-13882690D01*
X7369405Y-13996976D02*
X7369405Y-13796976D01*
X7455119Y-13996976D02*
X7455119Y-13892214D01*
X7445595Y-13873167D01*
X7426548Y-13863643D01*
X7397976Y-13863643D01*
X7378928Y-13873167D01*
X7369405Y-13882690D01*
X7578928Y-13996976D02*
X7559881Y-13987452D01*
X7550357Y-13977928D01*
X7540833Y-13958881D01*
X7540833Y-13901738D01*
X7550357Y-13882690D01*
X7559881Y-13873167D01*
X7578928Y-13863643D01*
X7607500Y-13863643D01*
X7626548Y-13873167D01*
X7636071Y-13882690D01*
X7645595Y-13901738D01*
X7645595Y-13958881D01*
X7636071Y-13977928D01*
X7626548Y-13987452D01*
X7607500Y-13996976D01*
X7578928Y-13996976D01*
X7759881Y-13996976D02*
X7740833Y-13987452D01*
X7731309Y-13968405D01*
X7731309Y-13796976D01*
X7912262Y-13987452D02*
X7893214Y-13996976D01*
X7855119Y-13996976D01*
X7836071Y-13987452D01*
X7826548Y-13968405D01*
X7826548Y-13892214D01*
X7836071Y-13873167D01*
X7855119Y-13863643D01*
X7893214Y-13863643D01*
X7912262Y-13873167D01*
X7921786Y-13892214D01*
X7921786Y-13911262D01*
X7826548Y-13930309D01*
X7997976Y-13987452D02*
X8017024Y-13996976D01*
X8055119Y-13996976D01*
X8074167Y-13987452D01*
X8083690Y-13968405D01*
X8083690Y-13958881D01*
X8074167Y-13939833D01*
X8055119Y-13930309D01*
X8026548Y-13930309D01*
X8007500Y-13920786D01*
X7997976Y-13901738D01*
X7997976Y-13892214D01*
X8007500Y-13873167D01*
X8026548Y-13863643D01*
X8055119Y-13863643D01*
X8074167Y-13873167D01*
X8150357Y-14073167D02*
X8159881Y-14063643D01*
X8178928Y-14035071D01*
X8188452Y-14016024D01*
X8197976Y-13987452D01*
X8207500Y-13939833D01*
X8207500Y-13901738D01*
X8197976Y-13854119D01*
X8188452Y-13825548D01*
X8178928Y-13806500D01*
X8159881Y-13777928D01*
X8150357Y-13768405D01*
D14*
X2947500Y-14120500D02*
X2947500Y-14220500D01*
X2897500Y-14170500D02*
X2997500Y-14170500D01*
D11*
X3359881Y-14260976D02*
X3245595Y-14260976D01*
X3302738Y-14260976D02*
X3302738Y-14060976D01*
X3283690Y-14089548D01*
X3264643Y-14108595D01*
X3245595Y-14118119D01*
X3445595Y-14241928D02*
X3455119Y-14251452D01*
X3445595Y-14260976D01*
X3436071Y-14251452D01*
X3445595Y-14241928D01*
X3445595Y-14260976D01*
X3578928Y-14060976D02*
X3597976Y-14060976D01*
X3617024Y-14070500D01*
X3626548Y-14080024D01*
X3636071Y-14099071D01*
X3645595Y-14137167D01*
X3645595Y-14184786D01*
X3636071Y-14222881D01*
X3626548Y-14241928D01*
X3617024Y-14251452D01*
X3597976Y-14260976D01*
X3578928Y-14260976D01*
X3559881Y-14251452D01*
X3550357Y-14241928D01*
X3540833Y-14222881D01*
X3531309Y-14184786D01*
X3531309Y-14137167D01*
X3540833Y-14099071D01*
X3550357Y-14080024D01*
X3559881Y-14070500D01*
X3578928Y-14060976D01*
X3769405Y-14060976D02*
X3788452Y-14060976D01*
X3807500Y-14070500D01*
X3817024Y-14080024D01*
X3826548Y-14099071D01*
X3836071Y-14137167D01*
X3836071Y-14184786D01*
X3826548Y-14222881D01*
X3817024Y-14241928D01*
X3807500Y-14251452D01*
X3788452Y-14260976D01*
X3769405Y-14260976D01*
X3750357Y-14251452D01*
X3740833Y-14241928D01*
X3731309Y-14222881D01*
X3721786Y-14184786D01*
X3721786Y-14137167D01*
X3731309Y-14099071D01*
X3740833Y-14080024D01*
X3750357Y-14070500D01*
X3769405Y-14060976D01*
X3959881Y-14060976D02*
X3978928Y-14060976D01*
X3997976Y-14070500D01*
X4007500Y-14080024D01*
X4017024Y-14099071D01*
X4026548Y-14137167D01*
X4026548Y-14184786D01*
X4017024Y-14222881D01*
X4007500Y-14241928D01*
X3997976Y-14251452D01*
X3978928Y-14260976D01*
X3959881Y-14260976D01*
X3940833Y-14251452D01*
X3931309Y-14241928D01*
X3921786Y-14222881D01*
X3912262Y-14184786D01*
X3912262Y-14137167D01*
X3921786Y-14099071D01*
X3931309Y-14080024D01*
X3940833Y-14070500D01*
X3959881Y-14060976D01*
X4112262Y-14260976D02*
X4112262Y-14127643D01*
X4112262Y-14146690D02*
X4121786Y-14137167D01*
X4140833Y-14127643D01*
X4169405Y-14127643D01*
X4188452Y-14137167D01*
X4197976Y-14156214D01*
X4197976Y-14260976D01*
X4197976Y-14156214D02*
X4207500Y-14137167D01*
X4226548Y-14127643D01*
X4255119Y-14127643D01*
X4274167Y-14137167D01*
X4283690Y-14156214D01*
X4283690Y-14260976D01*
X4378929Y-14260976D02*
X4378929Y-14127643D01*
X4378929Y-14146690D02*
X4388452Y-14137167D01*
X4407500Y-14127643D01*
X4436071Y-14127643D01*
X4455119Y-14137167D01*
X4464643Y-14156214D01*
X4464643Y-14260976D01*
X4464643Y-14156214D02*
X4474167Y-14137167D01*
X4493214Y-14127643D01*
X4521786Y-14127643D01*
X4540833Y-14137167D01*
X4550357Y-14156214D01*
X4550357Y-14260976D01*
X4940833Y-14051452D02*
X4769405Y-14308595D01*
X5197976Y-14060976D02*
X5217024Y-14060976D01*
X5236071Y-14070500D01*
X5245595Y-14080024D01*
X5255119Y-14099071D01*
X5264643Y-14137167D01*
X5264643Y-14184786D01*
X5255119Y-14222881D01*
X5245595Y-14241928D01*
X5236071Y-14251452D01*
X5217024Y-14260976D01*
X5197976Y-14260976D01*
X5178929Y-14251452D01*
X5169405Y-14241928D01*
X5159881Y-14222881D01*
X5150357Y-14184786D01*
X5150357Y-14137167D01*
X5159881Y-14099071D01*
X5169405Y-14080024D01*
X5178929Y-14070500D01*
X5197976Y-14060976D01*
X5350357Y-14241928D02*
X5359881Y-14251452D01*
X5350357Y-14260976D01*
X5340833Y-14251452D01*
X5350357Y-14241928D01*
X5350357Y-14260976D01*
X5483690Y-14060976D02*
X5502738Y-14060976D01*
X5521786Y-14070500D01*
X5531310Y-14080024D01*
X5540833Y-14099071D01*
X5550357Y-14137167D01*
X5550357Y-14184786D01*
X5540833Y-14222881D01*
X5531310Y-14241928D01*
X5521786Y-14251452D01*
X5502738Y-14260976D01*
X5483690Y-14260976D01*
X5464643Y-14251452D01*
X5455119Y-14241928D01*
X5445595Y-14222881D01*
X5436071Y-14184786D01*
X5436071Y-14137167D01*
X5445595Y-14099071D01*
X5455119Y-14080024D01*
X5464643Y-14070500D01*
X5483690Y-14060976D01*
X5617024Y-14060976D02*
X5740833Y-14060976D01*
X5674167Y-14137167D01*
X5702738Y-14137167D01*
X5721786Y-14146690D01*
X5731309Y-14156214D01*
X5740833Y-14175262D01*
X5740833Y-14222881D01*
X5731309Y-14241928D01*
X5721786Y-14251452D01*
X5702738Y-14260976D01*
X5645595Y-14260976D01*
X5626548Y-14251452D01*
X5617024Y-14241928D01*
X5836071Y-14260976D02*
X5874167Y-14260976D01*
X5893214Y-14251452D01*
X5902738Y-14241928D01*
X5921786Y-14213357D01*
X5931309Y-14175262D01*
X5931309Y-14099071D01*
X5921786Y-14080024D01*
X5912262Y-14070500D01*
X5893214Y-14060976D01*
X5855119Y-14060976D01*
X5836071Y-14070500D01*
X5826548Y-14080024D01*
X5817024Y-14099071D01*
X5817024Y-14146690D01*
X5826548Y-14165738D01*
X5836071Y-14175262D01*
X5855119Y-14184786D01*
X5893214Y-14184786D01*
X5912262Y-14175262D01*
X5921786Y-14165738D01*
X5931309Y-14146690D01*
X6102738Y-14127643D02*
X6102738Y-14260976D01*
X6055119Y-14051452D02*
X6007500Y-14194309D01*
X6131309Y-14194309D01*
X6197976Y-14060976D02*
X6197976Y-14099071D01*
X6274167Y-14060976D02*
X6274167Y-14099071D01*
X6569405Y-14337167D02*
X6559881Y-14327643D01*
X6540833Y-14299071D01*
X6531309Y-14280024D01*
X6521786Y-14251452D01*
X6512262Y-14203833D01*
X6512262Y-14165738D01*
X6521786Y-14118119D01*
X6531309Y-14089548D01*
X6540833Y-14070500D01*
X6559881Y-14041928D01*
X6569405Y-14032405D01*
X6731309Y-14127643D02*
X6731309Y-14260976D01*
X6683690Y-14051452D02*
X6636071Y-14194309D01*
X6759881Y-14194309D01*
X6864643Y-14146690D02*
X6845595Y-14137167D01*
X6836071Y-14127643D01*
X6826548Y-14108595D01*
X6826548Y-14099071D01*
X6836071Y-14080024D01*
X6845595Y-14070500D01*
X6864643Y-14060976D01*
X6902738Y-14060976D01*
X6921786Y-14070500D01*
X6931309Y-14080024D01*
X6940833Y-14099071D01*
X6940833Y-14108595D01*
X6931309Y-14127643D01*
X6921786Y-14137167D01*
X6902738Y-14146690D01*
X6864643Y-14146690D01*
X6845595Y-14156214D01*
X6836071Y-14165738D01*
X6826548Y-14184786D01*
X6826548Y-14222881D01*
X6836071Y-14241928D01*
X6845595Y-14251452D01*
X6864643Y-14260976D01*
X6902738Y-14260976D01*
X6921786Y-14251452D01*
X6931309Y-14241928D01*
X6940833Y-14222881D01*
X6940833Y-14184786D01*
X6931309Y-14165738D01*
X6921786Y-14156214D01*
X6902738Y-14146690D01*
X7178928Y-14260976D02*
X7178928Y-14060976D01*
X7264643Y-14260976D02*
X7264643Y-14156214D01*
X7255119Y-14137167D01*
X7236071Y-14127643D01*
X7207500Y-14127643D01*
X7188452Y-14137167D01*
X7178928Y-14146690D01*
X7388452Y-14260976D02*
X7369405Y-14251452D01*
X7359881Y-14241928D01*
X7350357Y-14222881D01*
X7350357Y-14165738D01*
X7359881Y-14146690D01*
X7369405Y-14137167D01*
X7388452Y-14127643D01*
X7417024Y-14127643D01*
X7436071Y-14137167D01*
X7445595Y-14146690D01*
X7455119Y-14165738D01*
X7455119Y-14222881D01*
X7445595Y-14241928D01*
X7436071Y-14251452D01*
X7417024Y-14260976D01*
X7388452Y-14260976D01*
X7569405Y-14260976D02*
X7550357Y-14251452D01*
X7540833Y-14232405D01*
X7540833Y-14060976D01*
X7721786Y-14251452D02*
X7702738Y-14260976D01*
X7664643Y-14260976D01*
X7645595Y-14251452D01*
X7636071Y-14232405D01*
X7636071Y-14156214D01*
X7645595Y-14137167D01*
X7664643Y-14127643D01*
X7702738Y-14127643D01*
X7721786Y-14137167D01*
X7731309Y-14156214D01*
X7731309Y-14175262D01*
X7636071Y-14194309D01*
X7807500Y-14251452D02*
X7826548Y-14260976D01*
X7864643Y-14260976D01*
X7883690Y-14251452D01*
X7893214Y-14232405D01*
X7893214Y-14222881D01*
X7883690Y-14203833D01*
X7864643Y-14194309D01*
X7836071Y-14194309D01*
X7817024Y-14184786D01*
X7807500Y-14165738D01*
X7807500Y-14156214D01*
X7817024Y-14137167D01*
X7836071Y-14127643D01*
X7864643Y-14127643D01*
X7883690Y-14137167D01*
X7959881Y-14337167D02*
X7969405Y-14327643D01*
X7988452Y-14299071D01*
X7997976Y-14280024D01*
X8007500Y-14251452D01*
X8017024Y-14203833D01*
X8017024Y-14165738D01*
X8007500Y-14118119D01*
X7997976Y-14089548D01*
X7988452Y-14070500D01*
X7969405Y-14041928D01*
X7959881Y-14032405D01*
D15*
X2982270Y-14471270D02*
X2982270Y-14397730D01*
X2908730Y-14397730D01*
X2908730Y-14471270D01*
X2982270Y-14471270D01*
D11*
X3359881Y-14524976D02*
X3245595Y-14524976D01*
X3302738Y-14524976D02*
X3302738Y-14324976D01*
X3283690Y-14353548D01*
X3264643Y-14372595D01*
X3245595Y-14382119D01*
X3445595Y-14505928D02*
X3455119Y-14515452D01*
X3445595Y-14524976D01*
X3436071Y-14515452D01*
X3445595Y-14505928D01*
X3445595Y-14524976D01*
X3578928Y-14324976D02*
X3597976Y-14324976D01*
X3617024Y-14334500D01*
X3626548Y-14344024D01*
X3636071Y-14363071D01*
X3645595Y-14401167D01*
X3645595Y-14448786D01*
X3636071Y-14486881D01*
X3626548Y-14505928D01*
X3617024Y-14515452D01*
X3597976Y-14524976D01*
X3578928Y-14524976D01*
X3559881Y-14515452D01*
X3550357Y-14505928D01*
X3540833Y-14486881D01*
X3531309Y-14448786D01*
X3531309Y-14401167D01*
X3540833Y-14363071D01*
X3550357Y-14344024D01*
X3559881Y-14334500D01*
X3578928Y-14324976D01*
X3817024Y-14391643D02*
X3817024Y-14524976D01*
X3769405Y-14315452D02*
X3721786Y-14458309D01*
X3845595Y-14458309D01*
X3959881Y-14324976D02*
X3978928Y-14324976D01*
X3997976Y-14334500D01*
X4007500Y-14344024D01*
X4017024Y-14363071D01*
X4026548Y-14401167D01*
X4026548Y-14448786D01*
X4017024Y-14486881D01*
X4007500Y-14505928D01*
X3997976Y-14515452D01*
X3978928Y-14524976D01*
X3959881Y-14524976D01*
X3940833Y-14515452D01*
X3931309Y-14505928D01*
X3921786Y-14486881D01*
X3912262Y-14448786D01*
X3912262Y-14401167D01*
X3921786Y-14363071D01*
X3931309Y-14344024D01*
X3940833Y-14334500D01*
X3959881Y-14324976D01*
X4112262Y-14524976D02*
X4112262Y-14391643D01*
X4112262Y-14410690D02*
X4121786Y-14401167D01*
X4140833Y-14391643D01*
X4169405Y-14391643D01*
X4188452Y-14401167D01*
X4197976Y-14420214D01*
X4197976Y-14524976D01*
X4197976Y-14420214D02*
X4207500Y-14401167D01*
X4226548Y-14391643D01*
X4255119Y-14391643D01*
X4274167Y-14401167D01*
X4283690Y-14420214D01*
X4283690Y-14524976D01*
X4378929Y-14524976D02*
X4378929Y-14391643D01*
X4378929Y-14410690D02*
X4388452Y-14401167D01*
X4407500Y-14391643D01*
X4436071Y-14391643D01*
X4455119Y-14401167D01*
X4464643Y-14420214D01*
X4464643Y-14524976D01*
X4464643Y-14420214D02*
X4474167Y-14401167D01*
X4493214Y-14391643D01*
X4521786Y-14391643D01*
X4540833Y-14401167D01*
X4550357Y-14420214D01*
X4550357Y-14524976D01*
X4940833Y-14315452D02*
X4769405Y-14572595D01*
X5197976Y-14324976D02*
X5217024Y-14324976D01*
X5236071Y-14334500D01*
X5245595Y-14344024D01*
X5255119Y-14363071D01*
X5264643Y-14401167D01*
X5264643Y-14448786D01*
X5255119Y-14486881D01*
X5245595Y-14505928D01*
X5236071Y-14515452D01*
X5217024Y-14524976D01*
X5197976Y-14524976D01*
X5178929Y-14515452D01*
X5169405Y-14505928D01*
X5159881Y-14486881D01*
X5150357Y-14448786D01*
X5150357Y-14401167D01*
X5159881Y-14363071D01*
X5169405Y-14344024D01*
X5178929Y-14334500D01*
X5197976Y-14324976D01*
X5350357Y-14505928D02*
X5359881Y-14515452D01*
X5350357Y-14524976D01*
X5340833Y-14515452D01*
X5350357Y-14505928D01*
X5350357Y-14524976D01*
X5483690Y-14324976D02*
X5502738Y-14324976D01*
X5521786Y-14334500D01*
X5531310Y-14344024D01*
X5540833Y-14363071D01*
X5550357Y-14401167D01*
X5550357Y-14448786D01*
X5540833Y-14486881D01*
X5531310Y-14505928D01*
X5521786Y-14515452D01*
X5502738Y-14524976D01*
X5483690Y-14524976D01*
X5464643Y-14515452D01*
X5455119Y-14505928D01*
X5445595Y-14486881D01*
X5436071Y-14448786D01*
X5436071Y-14401167D01*
X5445595Y-14363071D01*
X5455119Y-14344024D01*
X5464643Y-14334500D01*
X5483690Y-14324976D01*
X5721786Y-14391643D02*
X5721786Y-14524976D01*
X5674167Y-14315452D02*
X5626548Y-14458309D01*
X5750357Y-14458309D01*
X5864643Y-14324976D02*
X5883690Y-14324976D01*
X5902738Y-14334500D01*
X5912262Y-14344024D01*
X5921786Y-14363071D01*
X5931309Y-14401167D01*
X5931309Y-14448786D01*
X5921786Y-14486881D01*
X5912262Y-14505928D01*
X5902738Y-14515452D01*
X5883690Y-14524976D01*
X5864643Y-14524976D01*
X5845595Y-14515452D01*
X5836071Y-14505928D01*
X5826548Y-14486881D01*
X5817024Y-14448786D01*
X5817024Y-14401167D01*
X5826548Y-14363071D01*
X5836071Y-14344024D01*
X5845595Y-14334500D01*
X5864643Y-14324976D01*
X6026548Y-14524976D02*
X6064643Y-14524976D01*
X6083690Y-14515452D01*
X6093214Y-14505928D01*
X6112262Y-14477357D01*
X6121786Y-14439262D01*
X6121786Y-14363071D01*
X6112262Y-14344024D01*
X6102738Y-14334500D01*
X6083690Y-14324976D01*
X6045595Y-14324976D01*
X6026548Y-14334500D01*
X6017024Y-14344024D01*
X6007500Y-14363071D01*
X6007500Y-14410690D01*
X6017024Y-14429738D01*
X6026548Y-14439262D01*
X6045595Y-14448786D01*
X6083690Y-14448786D01*
X6102738Y-14439262D01*
X6112262Y-14429738D01*
X6121786Y-14410690D01*
X6197976Y-14324976D02*
X6197976Y-14363071D01*
X6274167Y-14324976D02*
X6274167Y-14363071D01*
X6569405Y-14601167D02*
X6559881Y-14591643D01*
X6540833Y-14563071D01*
X6531309Y-14544024D01*
X6521786Y-14515452D01*
X6512262Y-14467833D01*
X6512262Y-14429738D01*
X6521786Y-14382119D01*
X6531309Y-14353548D01*
X6540833Y-14334500D01*
X6559881Y-14305928D01*
X6569405Y-14296405D01*
X6626548Y-14324976D02*
X6750357Y-14324976D01*
X6683690Y-14401167D01*
X6712262Y-14401167D01*
X6731309Y-14410690D01*
X6740833Y-14420214D01*
X6750357Y-14439262D01*
X6750357Y-14486881D01*
X6740833Y-14505928D01*
X6731309Y-14515452D01*
X6712262Y-14524976D01*
X6655119Y-14524976D01*
X6636071Y-14515452D01*
X6626548Y-14505928D01*
X6864643Y-14410690D02*
X6845595Y-14401167D01*
X6836071Y-14391643D01*
X6826548Y-14372595D01*
X6826548Y-14363071D01*
X6836071Y-14344024D01*
X6845595Y-14334500D01*
X6864643Y-14324976D01*
X6902738Y-14324976D01*
X6921786Y-14334500D01*
X6931309Y-14344024D01*
X6940833Y-14363071D01*
X6940833Y-14372595D01*
X6931309Y-14391643D01*
X6921786Y-14401167D01*
X6902738Y-14410690D01*
X6864643Y-14410690D01*
X6845595Y-14420214D01*
X6836071Y-14429738D01*
X6826548Y-14448786D01*
X6826548Y-14486881D01*
X6836071Y-14505928D01*
X6845595Y-14515452D01*
X6864643Y-14524976D01*
X6902738Y-14524976D01*
X6921786Y-14515452D01*
X6931309Y-14505928D01*
X6940833Y-14486881D01*
X6940833Y-14448786D01*
X6931309Y-14429738D01*
X6921786Y-14420214D01*
X6902738Y-14410690D01*
X7178928Y-14524976D02*
X7178928Y-14324976D01*
X7264643Y-14524976D02*
X7264643Y-14420214D01*
X7255119Y-14401167D01*
X7236071Y-14391643D01*
X7207500Y-14391643D01*
X7188452Y-14401167D01*
X7178928Y-14410690D01*
X7388452Y-14524976D02*
X7369405Y-14515452D01*
X7359881Y-14505928D01*
X7350357Y-14486881D01*
X7350357Y-14429738D01*
X7359881Y-14410690D01*
X7369405Y-14401167D01*
X7388452Y-14391643D01*
X7417024Y-14391643D01*
X7436071Y-14401167D01*
X7445595Y-14410690D01*
X7455119Y-14429738D01*
X7455119Y-14486881D01*
X7445595Y-14505928D01*
X7436071Y-14515452D01*
X7417024Y-14524976D01*
X7388452Y-14524976D01*
X7569405Y-14524976D02*
X7550357Y-14515452D01*
X7540833Y-14496405D01*
X7540833Y-14324976D01*
X7721786Y-14515452D02*
X7702738Y-14524976D01*
X7664643Y-14524976D01*
X7645595Y-14515452D01*
X7636071Y-14496405D01*
X7636071Y-14420214D01*
X7645595Y-14401167D01*
X7664643Y-14391643D01*
X7702738Y-14391643D01*
X7721786Y-14401167D01*
X7731309Y-14420214D01*
X7731309Y-14439262D01*
X7636071Y-14458309D01*
X7807500Y-14515452D02*
X7826548Y-14524976D01*
X7864643Y-14524976D01*
X7883690Y-14515452D01*
X7893214Y-14496405D01*
X7893214Y-14486881D01*
X7883690Y-14467833D01*
X7864643Y-14458309D01*
X7836071Y-14458309D01*
X7817024Y-14448786D01*
X7807500Y-14429738D01*
X7807500Y-14420214D01*
X7817024Y-14401167D01*
X7836071Y-14391643D01*
X7864643Y-14391643D01*
X7883690Y-14401167D01*
X7959881Y-14601167D02*
X7969405Y-14591643D01*
X7988452Y-14563071D01*
X7997976Y-14544024D01*
X8007500Y-14515452D01*
X8017024Y-14467833D01*
X8017024Y-14429738D01*
X8007500Y-14382119D01*
X7997976Y-14353548D01*
X7988452Y-14334500D01*
X7969405Y-14305928D01*
X7959881Y-14296405D01*
D16*
X2942500Y-14753500D02*
X2997500Y-14698500D01*
X2942500Y-14643500D01*
X2887500Y-14698500D01*
X2942500Y-14753500D01*
D11*
X3359881Y-14788976D02*
X3245595Y-14788976D01*
X3302738Y-14788976D02*
X3302738Y-14588976D01*
X3283690Y-14617548D01*
X3264643Y-14636595D01*
X3245595Y-14646119D01*
X3445595Y-14769928D02*
X3455119Y-14779452D01*
X3445595Y-14788976D01*
X3436071Y-14779452D01*
X3445595Y-14769928D01*
X3445595Y-14788976D01*
X3645595Y-14788976D02*
X3531309Y-14788976D01*
X3588452Y-14788976D02*
X3588452Y-14588976D01*
X3569405Y-14617548D01*
X3550357Y-14636595D01*
X3531309Y-14646119D01*
X3769405Y-14588976D02*
X3788452Y-14588976D01*
X3807500Y-14598500D01*
X3817024Y-14608024D01*
X3826548Y-14627071D01*
X3836071Y-14665167D01*
X3836071Y-14712786D01*
X3826548Y-14750881D01*
X3817024Y-14769928D01*
X3807500Y-14779452D01*
X3788452Y-14788976D01*
X3769405Y-14788976D01*
X3750357Y-14779452D01*
X3740833Y-14769928D01*
X3731309Y-14750881D01*
X3721786Y-14712786D01*
X3721786Y-14665167D01*
X3731309Y-14627071D01*
X3740833Y-14608024D01*
X3750357Y-14598500D01*
X3769405Y-14588976D01*
X3959881Y-14588976D02*
X3978928Y-14588976D01*
X3997976Y-14598500D01*
X4007500Y-14608024D01*
X4017024Y-14627071D01*
X4026548Y-14665167D01*
X4026548Y-14712786D01*
X4017024Y-14750881D01*
X4007500Y-14769928D01*
X3997976Y-14779452D01*
X3978928Y-14788976D01*
X3959881Y-14788976D01*
X3940833Y-14779452D01*
X3931309Y-14769928D01*
X3921786Y-14750881D01*
X3912262Y-14712786D01*
X3912262Y-14665167D01*
X3921786Y-14627071D01*
X3931309Y-14608024D01*
X3940833Y-14598500D01*
X3959881Y-14588976D01*
X4112262Y-14788976D02*
X4112262Y-14655643D01*
X4112262Y-14674690D02*
X4121786Y-14665167D01*
X4140833Y-14655643D01*
X4169405Y-14655643D01*
X4188452Y-14665167D01*
X4197976Y-14684214D01*
X4197976Y-14788976D01*
X4197976Y-14684214D02*
X4207500Y-14665167D01*
X4226548Y-14655643D01*
X4255119Y-14655643D01*
X4274167Y-14665167D01*
X4283690Y-14684214D01*
X4283690Y-14788976D01*
X4378929Y-14788976D02*
X4378929Y-14655643D01*
X4378929Y-14674690D02*
X4388452Y-14665167D01*
X4407500Y-14655643D01*
X4436071Y-14655643D01*
X4455119Y-14665167D01*
X4464643Y-14684214D01*
X4464643Y-14788976D01*
X4464643Y-14684214D02*
X4474167Y-14665167D01*
X4493214Y-14655643D01*
X4521786Y-14655643D01*
X4540833Y-14665167D01*
X4550357Y-14684214D01*
X4550357Y-14788976D01*
X4940833Y-14579452D02*
X4769405Y-14836595D01*
X5197976Y-14588976D02*
X5217024Y-14588976D01*
X5236071Y-14598500D01*
X5245595Y-14608024D01*
X5255119Y-14627071D01*
X5264643Y-14665167D01*
X5264643Y-14712786D01*
X5255119Y-14750881D01*
X5245595Y-14769928D01*
X5236071Y-14779452D01*
X5217024Y-14788976D01*
X5197976Y-14788976D01*
X5178929Y-14779452D01*
X5169405Y-14769928D01*
X5159881Y-14750881D01*
X5150357Y-14712786D01*
X5150357Y-14665167D01*
X5159881Y-14627071D01*
X5169405Y-14608024D01*
X5178929Y-14598500D01*
X5197976Y-14588976D01*
X5350357Y-14769928D02*
X5359881Y-14779452D01*
X5350357Y-14788976D01*
X5340833Y-14779452D01*
X5350357Y-14769928D01*
X5350357Y-14788976D01*
X5483690Y-14588976D02*
X5502738Y-14588976D01*
X5521786Y-14598500D01*
X5531310Y-14608024D01*
X5540833Y-14627071D01*
X5550357Y-14665167D01*
X5550357Y-14712786D01*
X5540833Y-14750881D01*
X5531310Y-14769928D01*
X5521786Y-14779452D01*
X5502738Y-14788976D01*
X5483690Y-14788976D01*
X5464643Y-14779452D01*
X5455119Y-14769928D01*
X5445595Y-14750881D01*
X5436071Y-14712786D01*
X5436071Y-14665167D01*
X5445595Y-14627071D01*
X5455119Y-14608024D01*
X5464643Y-14598500D01*
X5483690Y-14588976D01*
X5721786Y-14655643D02*
X5721786Y-14788976D01*
X5674167Y-14579452D02*
X5626548Y-14722309D01*
X5750357Y-14722309D01*
X5807500Y-14588976D02*
X5931309Y-14588976D01*
X5864643Y-14665167D01*
X5893214Y-14665167D01*
X5912262Y-14674690D01*
X5921786Y-14684214D01*
X5931309Y-14703262D01*
X5931309Y-14750881D01*
X5921786Y-14769928D01*
X5912262Y-14779452D01*
X5893214Y-14788976D01*
X5836071Y-14788976D01*
X5817024Y-14779452D01*
X5807500Y-14769928D01*
X5997976Y-14588976D02*
X6121786Y-14588976D01*
X6055119Y-14665167D01*
X6083690Y-14665167D01*
X6102738Y-14674690D01*
X6112262Y-14684214D01*
X6121786Y-14703262D01*
X6121786Y-14750881D01*
X6112262Y-14769928D01*
X6102738Y-14779452D01*
X6083690Y-14788976D01*
X6026548Y-14788976D01*
X6007500Y-14779452D01*
X5997976Y-14769928D01*
X6197976Y-14588976D02*
X6197976Y-14627071D01*
X6274167Y-14588976D02*
X6274167Y-14627071D01*
X6569405Y-14865167D02*
X6559881Y-14855643D01*
X6540833Y-14827071D01*
X6531309Y-14808024D01*
X6521786Y-14779452D01*
X6512262Y-14731833D01*
X6512262Y-14693738D01*
X6521786Y-14646119D01*
X6531309Y-14617548D01*
X6540833Y-14598500D01*
X6559881Y-14569928D01*
X6569405Y-14560405D01*
X6731309Y-14588976D02*
X6693214Y-14588976D01*
X6674167Y-14598500D01*
X6664643Y-14608024D01*
X6645595Y-14636595D01*
X6636071Y-14674690D01*
X6636071Y-14750881D01*
X6645595Y-14769928D01*
X6655119Y-14779452D01*
X6674167Y-14788976D01*
X6712262Y-14788976D01*
X6731309Y-14779452D01*
X6740833Y-14769928D01*
X6750357Y-14750881D01*
X6750357Y-14703262D01*
X6740833Y-14684214D01*
X6731309Y-14674690D01*
X6712262Y-14665167D01*
X6674167Y-14665167D01*
X6655119Y-14674690D01*
X6645595Y-14684214D01*
X6636071Y-14703262D01*
X6988452Y-14788976D02*
X6988452Y-14588976D01*
X7074167Y-14788976D02*
X7074167Y-14684214D01*
X7064643Y-14665167D01*
X7045595Y-14655643D01*
X7017024Y-14655643D01*
X6997976Y-14665167D01*
X6988452Y-14674690D01*
X7197976Y-14788976D02*
X7178928Y-14779452D01*
X7169405Y-14769928D01*
X7159881Y-14750881D01*
X7159881Y-14693738D01*
X7169405Y-14674690D01*
X7178928Y-14665167D01*
X7197976Y-14655643D01*
X7226548Y-14655643D01*
X7245595Y-14665167D01*
X7255119Y-14674690D01*
X7264643Y-14693738D01*
X7264643Y-14750881D01*
X7255119Y-14769928D01*
X7245595Y-14779452D01*
X7226548Y-14788976D01*
X7197976Y-14788976D01*
X7378928Y-14788976D02*
X7359881Y-14779452D01*
X7350357Y-14760405D01*
X7350357Y-14588976D01*
X7531309Y-14779452D02*
X7512262Y-14788976D01*
X7474167Y-14788976D01*
X7455119Y-14779452D01*
X7445595Y-14760405D01*
X7445595Y-14684214D01*
X7455119Y-14665167D01*
X7474167Y-14655643D01*
X7512262Y-14655643D01*
X7531309Y-14665167D01*
X7540833Y-14684214D01*
X7540833Y-14703262D01*
X7445595Y-14722309D01*
X7617024Y-14779452D02*
X7636071Y-14788976D01*
X7674167Y-14788976D01*
X7693214Y-14779452D01*
X7702738Y-14760405D01*
X7702738Y-14750881D01*
X7693214Y-14731833D01*
X7674167Y-14722309D01*
X7645595Y-14722309D01*
X7626548Y-14712786D01*
X7617024Y-14693738D01*
X7617024Y-14684214D01*
X7626548Y-14665167D01*
X7645595Y-14655643D01*
X7674167Y-14655643D01*
X7693214Y-14665167D01*
X7769405Y-14865167D02*
X7778928Y-14855643D01*
X7797976Y-14827071D01*
X7807500Y-14808024D01*
X7817024Y-14779452D01*
X7826548Y-14731833D01*
X7826548Y-14693738D01*
X7817024Y-14646119D01*
X7807500Y-14617548D01*
X7797976Y-14598500D01*
X7778928Y-14569928D01*
X7769405Y-14560405D01*
M02*
