M48
; DRILL file {KiCad (6.0.10)} date Mon Mar  6 16:47:15 2023
; FORMAT={-:-/ absolute / inch / decimal}
; #@! TF.CreationDate,2023-03-06T16:47:15+01:00
; #@! TF.GenerationSoftware,Kicad,Pcbnew,(6.0.10)
; #@! TF.FileFunction,Plated,1,2,PTH
FMAT,2
INCH
; #@! TA.AperFunction,Plated,PTH,ViaDrill
T1C0.0157
; #@! TA.AperFunction,Plated,PTH,ComponentDrill
T2C0.0315
; #@! TA.AperFunction,Plated,PTH,ComponentDrill
T3C0.0394
; #@! TA.AperFunction,Plated,PTH,ComponentDrill
T4C0.0409
; #@! TA.AperFunction,Plated,PTH,ComponentDrill
T5C0.0433
%
G90
G05
T1
X1.3189Y-1.9094
X1.5256Y-1.439
X1.6142Y-4.0551
X1.69Y-4.499
X1.7382Y-3.4902
X1.8602Y-2.039
X1.8976Y-4.7126
X2.186Y-1.4754
X2.2963Y-3.7984
X2.4488Y-4.9218
X2.4803Y-1.6339
X2.5689Y-1.5059
X2.6142Y-3.8346
X2.8445Y-2.1358
X3.0461Y-4.6505
X3.1496Y-3.2087
X3.1791Y-2.3445
X3.2992Y-4.5039
X3.6457Y-4.2205
X3.9173Y-4.4587
X4.1634Y-1.7874
X4.7624Y-3.975
T2
X1.3937Y-2.5551
X1.3953Y-2.4016
X1.3953Y-2.7205
X1.4004Y-1.339
X1.4004Y-1.439
X1.4004Y-1.539
X1.4004Y-1.639
X1.4004Y-1.739
X1.4004Y-1.839
X1.4004Y-1.939
X1.4004Y-2.039
X1.6457Y-3.3984
X1.6457Y-3.7984
X1.6823Y-2.8701
X1.7807Y-2.8701
X1.7937Y-2.5551
X1.7953Y-2.4016
X1.7953Y-2.7205
X1.9193Y-2.4016
X1.9213Y-2.563
X1.9213Y-2.663
X1.9213Y-2.763
X1.9213Y-2.863
X1.9685Y-3.9535
X1.9685Y-4.3535
X2.1555Y-3.9535
X2.1555Y-4.3535
X2.1654Y-4.6
X2.1654Y-5.0
X2.2213Y-2.563
X2.2213Y-2.663
X2.2213Y-2.763
X2.2213Y-2.863
X2.2654Y-5.0
X2.3004Y-1.339
X2.3004Y-1.439
X2.3004Y-1.539
X2.3004Y-1.639
X2.3004Y-1.739
X2.3004Y-1.839
X2.3004Y-1.939
X2.3004Y-2.039
X2.3193Y-2.4016
X2.3614Y-2.8209
X2.3614Y-2.9193
X2.3642Y-2.561
X2.3642Y-2.6594
X2.3654Y-4.6
X2.3685Y-5.0
X2.4114Y-3.3984
X2.4114Y-3.7984
X2.6799Y-1.339
X2.6799Y-1.439
X2.6799Y-1.539
X2.6799Y-1.639
X2.6799Y-1.739
X2.6799Y-1.839
X2.6799Y-1.939
X2.6799Y-2.039
X2.685Y-2.4213
X2.685Y-2.5787
X2.685Y-2.7382
X2.685Y-3.0669
X2.685Y-3.2835
X2.685Y-3.4213
X2.685Y-3.5591
X2.7177Y-3.7165
X2.7421Y-3.9173
X2.8161Y-3.7165
X2.8421Y-3.9173
X2.9421Y-3.9173
X2.9626Y-2.8937
X2.9736Y-3.7165
X3.0421Y-3.9173
X3.061Y-2.8937
X3.072Y-3.7165
X3.085Y-2.4213
X3.085Y-2.5787
X3.085Y-2.7382
X3.085Y-3.0669
X3.085Y-3.2835
X3.085Y-3.4213
X3.085Y-3.5591
X3.1421Y-3.9173
X3.2421Y-3.9173
X3.2461Y-2.4213
X3.2461Y-3.0669
X3.248Y-2.5866
X3.248Y-2.6866
X3.248Y-2.7866
X3.248Y-2.8866
X3.248Y-3.4055
X3.248Y-3.5055
X3.248Y-3.6055
X3.248Y-3.7055
X3.4339Y-3.937
X3.4339Y-4.137
X3.4339Y-4.3307
X3.4339Y-4.5307
X3.435Y-4.4307
X3.4417Y-4.037
X3.548Y-2.5866
X3.548Y-2.6866
X3.548Y-2.7866
X3.548Y-2.8866
X3.548Y-3.4055
X3.548Y-3.5055
X3.548Y-3.6055
X3.548Y-3.7055
X3.5799Y-1.339
X3.5799Y-1.439
X3.5799Y-1.539
X3.5799Y-1.639
X3.5799Y-1.739
X3.5799Y-1.839
X3.5799Y-1.939
X3.5799Y-2.039
X3.6461Y-2.4213
X3.6461Y-3.0669
X3.7205Y-2.5846
X3.7205Y-2.6831
X3.7205Y-2.8445
X3.7205Y-2.9429
X3.7315Y-3.2736
X3.7315Y-3.372
X3.7315Y-3.5492
X3.7315Y-3.6476
X3.8339Y-3.937
X3.8339Y-4.137
X3.8339Y-4.3307
X3.8339Y-4.5307
X3.9791Y-1.339
X3.9791Y-1.439
X3.9791Y-1.539
X3.9791Y-1.639
X3.9791Y-1.739
X3.9791Y-1.839
X3.9791Y-1.939
X3.9791Y-2.039
X4.0059Y-2.8976
X4.0126Y-2.4213
X4.0126Y-2.5787
X4.0126Y-2.75
X4.0126Y-3.0709
X4.0776Y-3.3114
X4.0776Y-3.4114
X4.0776Y-3.5114
X4.0776Y-3.6114
X4.0776Y-3.7114
X4.0776Y-3.8114
X4.0776Y-3.9114
X4.0776Y-4.0114
X4.1043Y-2.8976
X4.1791Y-4.3638
X4.1791Y-4.7638
X4.2898Y-2.8937
X4.376Y-4.3638
X4.376Y-4.7638
X4.3882Y-2.8937
X4.4126Y-2.4213
X4.4126Y-2.5787
X4.4126Y-2.75
X4.4126Y-3.0709
X4.5638Y-3.0709
X4.5657Y-2.5866
X4.5657Y-2.6866
X4.5657Y-2.7866
X4.5657Y-2.8866
X4.8657Y-2.5866
X4.8657Y-2.6866
X4.8657Y-2.7866
X4.8657Y-2.8866
X4.8791Y-1.339
X4.8791Y-1.439
X4.8791Y-1.539
X4.8791Y-1.639
X4.8791Y-1.739
X4.8791Y-1.839
X4.8791Y-1.939
X4.8791Y-2.039
X4.9638Y-3.0709
X4.9776Y-3.3114
X4.9776Y-3.4114
X4.9776Y-3.5114
X4.9776Y-3.6114
X4.9776Y-3.7114
X4.9776Y-3.8114
X4.9776Y-3.9114
X4.9776Y-4.0114
X5.0197Y-2.5886
X5.0197Y-2.687
X5.0197Y-2.8248
X5.0197Y-2.9232
T3
X1.2795Y-3.6781
X1.2795Y-3.7781
X1.2795Y-3.8781
X1.2795Y-3.9781
X1.2795Y-4.0781
X1.2795Y-4.2687
X1.2795Y-4.3687
X1.2795Y-4.4687
X1.2795Y-4.5687
X1.2795Y-4.6687
X1.3795Y-3.6781
X1.3795Y-3.7781
X1.3795Y-3.8781
X1.3795Y-3.9781
X1.3795Y-4.0781
X1.5504Y-4.8606
X1.5504Y-4.9606
X1.6504Y-4.8606
X1.6504Y-4.9606
X1.7504Y-4.8606
X1.7504Y-4.9606
X1.8504Y-4.8606
X1.8504Y-4.9606
X1.9504Y-4.8606
X1.9504Y-4.9606
X2.4409Y-2.2933
X2.7461Y-4.241
X2.8461Y-4.241
X2.9461Y-4.241
X3.0461Y-4.241
X3.1461Y-4.241
X3.2461Y-4.241
X3.5404Y-4.8587
X3.5404Y-4.9587
X3.6404Y-4.8587
X3.6404Y-4.9587
X3.7404Y-4.8587
X3.7404Y-4.9587
X3.75Y-2.2933
X3.8404Y-4.8587
X3.8404Y-4.9587
X3.9404Y-4.8587
X3.9404Y-4.9587
X4.1533Y-4.9933
X4.2533Y-4.9933
X4.5077Y-4.9933
X4.6077Y-4.9933
X5.0295Y-2.2933
T4
X1.5276Y-2.9031
X1.5276Y-3.0031
X1.5276Y-3.1031
X1.5276Y-3.2031
X1.5276Y-3.3031
X1.5276Y-3.4031
X1.5276Y-3.5031
X1.5276Y-3.6031
X1.5276Y-3.7031
X1.5276Y-3.8031
X1.5276Y-3.9031
X1.5276Y-4.0031
X1.5276Y-4.1031
X1.5276Y-4.2031
X1.5276Y-4.3031
X1.5276Y-4.4031
X1.5276Y-4.5031
X1.5276Y-4.6031
X1.5276Y-4.7031
X2.5276Y-2.9031
X2.5276Y-3.0031
X2.5276Y-3.1031
X2.5276Y-3.2031
X2.5276Y-3.3031
X2.5276Y-3.4031
X2.5276Y-3.5031
X2.5276Y-3.6031
X2.5276Y-3.7031
X2.5276Y-3.8031
X2.5276Y-3.9031
X2.5276Y-4.0031
X2.5276Y-4.1031
X2.5276Y-4.2031
X2.5276Y-4.3031
X2.5276Y-4.4031
X2.5276Y-4.5031
X2.5276Y-4.6031
X2.5276Y-4.7031
T5
X1.752Y-3.9535
X1.752Y-4.3535
X2.372Y-3.9535
X2.372Y-4.3535
X4.5866Y-4.3669
X4.5866Y-4.7669
T0
M30
