%TF.GenerationSoftware,KiCad,Pcbnew,(6.0.10)*%
%TF.CreationDate,2023-03-01T13:20:10+01:00*%
%TF.ProjectId,Adapterboard,41646170-7465-4726-926f-6172642e6b69,2.3*%
%TF.SameCoordinates,Original*%
%TF.FileFunction,Drillmap*%
%TF.FilePolarity,Positive*%
%FSLAX45Y45*%
G04 Gerber Fmt 4.5, Leading zero omitted, Abs format (unit mm)*
G04 Created by KiCad (PCBNEW (6.0.10)) date 2023-03-01 13:20:10*
%MOMM*%
%LPD*%
G01*
G04 APERTURE LIST*
%ADD10C,0.050000*%
%ADD11C,0.200000*%
%ADD12C,0.320000*%
G04 APERTURE END LIST*
D10*
X3000000Y-3000000D02*
X13000000Y-3000000D01*
X13000000Y-3000000D02*
X13000000Y-13000000D01*
X13000000Y-13000000D02*
X3000000Y-13000000D01*
X3000000Y-13000000D02*
X3000000Y-3000000D01*
D11*
D12*
X3215000Y-12490000D02*
X3535000Y-12810000D01*
X3535000Y-12490000D02*
X3215000Y-12810000D01*
X4490000Y-3240000D02*
X4810000Y-3560000D01*
X4810000Y-3240000D02*
X4490000Y-3560000D01*
X11140000Y-3240000D02*
X11460000Y-3560000D01*
X11460000Y-3240000D02*
X11140000Y-3560000D01*
X12465000Y-12440000D02*
X12785000Y-12760000D01*
X12785000Y-12440000D02*
X12465000Y-12760000D01*
D11*
X3255119Y-13312976D02*
X3255119Y-13112976D01*
X3302738Y-13112976D01*
X3331309Y-13122500D01*
X3350357Y-13141548D01*
X3359881Y-13160595D01*
X3369405Y-13198690D01*
X3369405Y-13227262D01*
X3359881Y-13265357D01*
X3350357Y-13284405D01*
X3331309Y-13303452D01*
X3302738Y-13312976D01*
X3255119Y-13312976D01*
X3455119Y-13312976D02*
X3455119Y-13179643D01*
X3455119Y-13217738D02*
X3464643Y-13198690D01*
X3474167Y-13189167D01*
X3493214Y-13179643D01*
X3512262Y-13179643D01*
X3578928Y-13312976D02*
X3578928Y-13179643D01*
X3578928Y-13112976D02*
X3569405Y-13122500D01*
X3578928Y-13132024D01*
X3588452Y-13122500D01*
X3578928Y-13112976D01*
X3578928Y-13132024D01*
X3702738Y-13312976D02*
X3683690Y-13303452D01*
X3674167Y-13284405D01*
X3674167Y-13112976D01*
X3807500Y-13312976D02*
X3788452Y-13303452D01*
X3778928Y-13284405D01*
X3778928Y-13112976D01*
X4036071Y-13312976D02*
X4036071Y-13112976D01*
X4102738Y-13255833D01*
X4169405Y-13112976D01*
X4169405Y-13312976D01*
X4350357Y-13312976D02*
X4350357Y-13208214D01*
X4340833Y-13189167D01*
X4321786Y-13179643D01*
X4283690Y-13179643D01*
X4264643Y-13189167D01*
X4350357Y-13303452D02*
X4331310Y-13312976D01*
X4283690Y-13312976D01*
X4264643Y-13303452D01*
X4255119Y-13284405D01*
X4255119Y-13265357D01*
X4264643Y-13246309D01*
X4283690Y-13236786D01*
X4331310Y-13236786D01*
X4350357Y-13227262D01*
X4445595Y-13179643D02*
X4445595Y-13379643D01*
X4445595Y-13189167D02*
X4464643Y-13179643D01*
X4502738Y-13179643D01*
X4521786Y-13189167D01*
X4531310Y-13198690D01*
X4540833Y-13217738D01*
X4540833Y-13274881D01*
X4531310Y-13293928D01*
X4521786Y-13303452D01*
X4502738Y-13312976D01*
X4464643Y-13312976D01*
X4445595Y-13303452D01*
X4626548Y-13293928D02*
X4636071Y-13303452D01*
X4626548Y-13312976D01*
X4617024Y-13303452D01*
X4626548Y-13293928D01*
X4626548Y-13312976D01*
X4626548Y-13189167D02*
X4636071Y-13198690D01*
X4626548Y-13208214D01*
X4617024Y-13198690D01*
X4626548Y-13189167D01*
X4626548Y-13208214D01*
X2797500Y-13542500D02*
X2997500Y-13742500D01*
X2997500Y-13542500D02*
X2797500Y-13742500D01*
X3236071Y-13532976D02*
X3359881Y-13532976D01*
X3293214Y-13609167D01*
X3321786Y-13609167D01*
X3340833Y-13618690D01*
X3350357Y-13628214D01*
X3359881Y-13647262D01*
X3359881Y-13694881D01*
X3350357Y-13713928D01*
X3340833Y-13723452D01*
X3321786Y-13732976D01*
X3264643Y-13732976D01*
X3245595Y-13723452D01*
X3236071Y-13713928D01*
X3445595Y-13713928D02*
X3455119Y-13723452D01*
X3445595Y-13732976D01*
X3436071Y-13723452D01*
X3445595Y-13713928D01*
X3445595Y-13732976D01*
X3531309Y-13552024D02*
X3540833Y-13542500D01*
X3559881Y-13532976D01*
X3607500Y-13532976D01*
X3626548Y-13542500D01*
X3636071Y-13552024D01*
X3645595Y-13571071D01*
X3645595Y-13590119D01*
X3636071Y-13618690D01*
X3521786Y-13732976D01*
X3645595Y-13732976D01*
X3769405Y-13532976D02*
X3788452Y-13532976D01*
X3807500Y-13542500D01*
X3817024Y-13552024D01*
X3826548Y-13571071D01*
X3836071Y-13609167D01*
X3836071Y-13656786D01*
X3826548Y-13694881D01*
X3817024Y-13713928D01*
X3807500Y-13723452D01*
X3788452Y-13732976D01*
X3769405Y-13732976D01*
X3750357Y-13723452D01*
X3740833Y-13713928D01*
X3731309Y-13694881D01*
X3721786Y-13656786D01*
X3721786Y-13609167D01*
X3731309Y-13571071D01*
X3740833Y-13552024D01*
X3750357Y-13542500D01*
X3769405Y-13532976D01*
X3959881Y-13532976D02*
X3978928Y-13532976D01*
X3997976Y-13542500D01*
X4007500Y-13552024D01*
X4017024Y-13571071D01*
X4026548Y-13609167D01*
X4026548Y-13656786D01*
X4017024Y-13694881D01*
X4007500Y-13713928D01*
X3997976Y-13723452D01*
X3978928Y-13732976D01*
X3959881Y-13732976D01*
X3940833Y-13723452D01*
X3931309Y-13713928D01*
X3921786Y-13694881D01*
X3912262Y-13656786D01*
X3912262Y-13609167D01*
X3921786Y-13571071D01*
X3931309Y-13552024D01*
X3940833Y-13542500D01*
X3959881Y-13532976D01*
X4112262Y-13732976D02*
X4112262Y-13599643D01*
X4112262Y-13618690D02*
X4121786Y-13609167D01*
X4140833Y-13599643D01*
X4169405Y-13599643D01*
X4188452Y-13609167D01*
X4197976Y-13628214D01*
X4197976Y-13732976D01*
X4197976Y-13628214D02*
X4207500Y-13609167D01*
X4226548Y-13599643D01*
X4255119Y-13599643D01*
X4274167Y-13609167D01*
X4283690Y-13628214D01*
X4283690Y-13732976D01*
X4378929Y-13732976D02*
X4378929Y-13599643D01*
X4378929Y-13618690D02*
X4388452Y-13609167D01*
X4407500Y-13599643D01*
X4436071Y-13599643D01*
X4455119Y-13609167D01*
X4464643Y-13628214D01*
X4464643Y-13732976D01*
X4464643Y-13628214D02*
X4474167Y-13609167D01*
X4493214Y-13599643D01*
X4521786Y-13599643D01*
X4540833Y-13609167D01*
X4550357Y-13628214D01*
X4550357Y-13732976D01*
X4940833Y-13523452D02*
X4769405Y-13780595D01*
X5197976Y-13532976D02*
X5217024Y-13532976D01*
X5236071Y-13542500D01*
X5245595Y-13552024D01*
X5255119Y-13571071D01*
X5264643Y-13609167D01*
X5264643Y-13656786D01*
X5255119Y-13694881D01*
X5245595Y-13713928D01*
X5236071Y-13723452D01*
X5217024Y-13732976D01*
X5197976Y-13732976D01*
X5178929Y-13723452D01*
X5169405Y-13713928D01*
X5159881Y-13694881D01*
X5150357Y-13656786D01*
X5150357Y-13609167D01*
X5159881Y-13571071D01*
X5169405Y-13552024D01*
X5178929Y-13542500D01*
X5197976Y-13532976D01*
X5350357Y-13713928D02*
X5359881Y-13723452D01*
X5350357Y-13732976D01*
X5340833Y-13723452D01*
X5350357Y-13713928D01*
X5350357Y-13732976D01*
X5550357Y-13732976D02*
X5436071Y-13732976D01*
X5493214Y-13732976D02*
X5493214Y-13532976D01*
X5474167Y-13561548D01*
X5455119Y-13580595D01*
X5436071Y-13590119D01*
X5626548Y-13552024D02*
X5636071Y-13542500D01*
X5655119Y-13532976D01*
X5702738Y-13532976D01*
X5721786Y-13542500D01*
X5731309Y-13552024D01*
X5740833Y-13571071D01*
X5740833Y-13590119D01*
X5731309Y-13618690D01*
X5617024Y-13732976D01*
X5740833Y-13732976D01*
X5912262Y-13532976D02*
X5874167Y-13532976D01*
X5855119Y-13542500D01*
X5845595Y-13552024D01*
X5826548Y-13580595D01*
X5817024Y-13618690D01*
X5817024Y-13694881D01*
X5826548Y-13713928D01*
X5836071Y-13723452D01*
X5855119Y-13732976D01*
X5893214Y-13732976D01*
X5912262Y-13723452D01*
X5921786Y-13713928D01*
X5931309Y-13694881D01*
X5931309Y-13647262D01*
X5921786Y-13628214D01*
X5912262Y-13618690D01*
X5893214Y-13609167D01*
X5855119Y-13609167D01*
X5836071Y-13618690D01*
X5826548Y-13628214D01*
X5817024Y-13647262D01*
X6055119Y-13532976D02*
X6074167Y-13532976D01*
X6093214Y-13542500D01*
X6102738Y-13552024D01*
X6112262Y-13571071D01*
X6121786Y-13609167D01*
X6121786Y-13656786D01*
X6112262Y-13694881D01*
X6102738Y-13713928D01*
X6093214Y-13723452D01*
X6074167Y-13732976D01*
X6055119Y-13732976D01*
X6036071Y-13723452D01*
X6026548Y-13713928D01*
X6017024Y-13694881D01*
X6007500Y-13656786D01*
X6007500Y-13609167D01*
X6017024Y-13571071D01*
X6026548Y-13552024D01*
X6036071Y-13542500D01*
X6055119Y-13532976D01*
X6197976Y-13532976D02*
X6197976Y-13571071D01*
X6274167Y-13532976D02*
X6274167Y-13571071D01*
X6569405Y-13809167D02*
X6559881Y-13799643D01*
X6540833Y-13771071D01*
X6531309Y-13752024D01*
X6521786Y-13723452D01*
X6512262Y-13675833D01*
X6512262Y-13637738D01*
X6521786Y-13590119D01*
X6531309Y-13561548D01*
X6540833Y-13542500D01*
X6559881Y-13513928D01*
X6569405Y-13504405D01*
X6731309Y-13599643D02*
X6731309Y-13732976D01*
X6683690Y-13523452D02*
X6636071Y-13666309D01*
X6759881Y-13666309D01*
X6988452Y-13732976D02*
X6988452Y-13532976D01*
X7074167Y-13732976D02*
X7074167Y-13628214D01*
X7064643Y-13609167D01*
X7045595Y-13599643D01*
X7017024Y-13599643D01*
X6997976Y-13609167D01*
X6988452Y-13618690D01*
X7197976Y-13732976D02*
X7178928Y-13723452D01*
X7169405Y-13713928D01*
X7159881Y-13694881D01*
X7159881Y-13637738D01*
X7169405Y-13618690D01*
X7178928Y-13609167D01*
X7197976Y-13599643D01*
X7226548Y-13599643D01*
X7245595Y-13609167D01*
X7255119Y-13618690D01*
X7264643Y-13637738D01*
X7264643Y-13694881D01*
X7255119Y-13713928D01*
X7245595Y-13723452D01*
X7226548Y-13732976D01*
X7197976Y-13732976D01*
X7378928Y-13732976D02*
X7359881Y-13723452D01*
X7350357Y-13704405D01*
X7350357Y-13532976D01*
X7531309Y-13723452D02*
X7512262Y-13732976D01*
X7474167Y-13732976D01*
X7455119Y-13723452D01*
X7445595Y-13704405D01*
X7445595Y-13628214D01*
X7455119Y-13609167D01*
X7474167Y-13599643D01*
X7512262Y-13599643D01*
X7531309Y-13609167D01*
X7540833Y-13628214D01*
X7540833Y-13647262D01*
X7445595Y-13666309D01*
X7617024Y-13723452D02*
X7636071Y-13732976D01*
X7674167Y-13732976D01*
X7693214Y-13723452D01*
X7702738Y-13704405D01*
X7702738Y-13694881D01*
X7693214Y-13675833D01*
X7674167Y-13666309D01*
X7645595Y-13666309D01*
X7626548Y-13656786D01*
X7617024Y-13637738D01*
X7617024Y-13628214D01*
X7626548Y-13609167D01*
X7645595Y-13599643D01*
X7674167Y-13599643D01*
X7693214Y-13609167D01*
X7769405Y-13809167D02*
X7778928Y-13799643D01*
X7797976Y-13771071D01*
X7807500Y-13752024D01*
X7817024Y-13723452D01*
X7826548Y-13675833D01*
X7826548Y-13637738D01*
X7817024Y-13590119D01*
X7807500Y-13561548D01*
X7797976Y-13542500D01*
X7778928Y-13513928D01*
X7769405Y-13504405D01*
X8131309Y-13809167D02*
X8121786Y-13799643D01*
X8102738Y-13771071D01*
X8093214Y-13752024D01*
X8083690Y-13723452D01*
X8074167Y-13675833D01*
X8074167Y-13637738D01*
X8083690Y-13590119D01*
X8093214Y-13561548D01*
X8102738Y-13542500D01*
X8121786Y-13513928D01*
X8131309Y-13504405D01*
X8207500Y-13599643D02*
X8207500Y-13732976D01*
X8207500Y-13618690D02*
X8217024Y-13609167D01*
X8236071Y-13599643D01*
X8264643Y-13599643D01*
X8283690Y-13609167D01*
X8293214Y-13628214D01*
X8293214Y-13732976D01*
X8417024Y-13732976D02*
X8397976Y-13723452D01*
X8388452Y-13713928D01*
X8378928Y-13694881D01*
X8378928Y-13637738D01*
X8388452Y-13618690D01*
X8397976Y-13609167D01*
X8417024Y-13599643D01*
X8445595Y-13599643D01*
X8464643Y-13609167D01*
X8474167Y-13618690D01*
X8483690Y-13637738D01*
X8483690Y-13694881D01*
X8474167Y-13713928D01*
X8464643Y-13723452D01*
X8445595Y-13732976D01*
X8417024Y-13732976D01*
X8540833Y-13599643D02*
X8617024Y-13599643D01*
X8569405Y-13532976D02*
X8569405Y-13704405D01*
X8578929Y-13723452D01*
X8597976Y-13732976D01*
X8617024Y-13732976D01*
X8836071Y-13599643D02*
X8836071Y-13799643D01*
X8836071Y-13609167D02*
X8855119Y-13599643D01*
X8893214Y-13599643D01*
X8912262Y-13609167D01*
X8921786Y-13618690D01*
X8931310Y-13637738D01*
X8931310Y-13694881D01*
X8921786Y-13713928D01*
X8912262Y-13723452D01*
X8893214Y-13732976D01*
X8855119Y-13732976D01*
X8836071Y-13723452D01*
X9045595Y-13732976D02*
X9026548Y-13723452D01*
X9017024Y-13704405D01*
X9017024Y-13532976D01*
X9207500Y-13732976D02*
X9207500Y-13628214D01*
X9197976Y-13609167D01*
X9178929Y-13599643D01*
X9140833Y-13599643D01*
X9121786Y-13609167D01*
X9207500Y-13723452D02*
X9188452Y-13732976D01*
X9140833Y-13732976D01*
X9121786Y-13723452D01*
X9112262Y-13704405D01*
X9112262Y-13685357D01*
X9121786Y-13666309D01*
X9140833Y-13656786D01*
X9188452Y-13656786D01*
X9207500Y-13647262D01*
X9274167Y-13599643D02*
X9350357Y-13599643D01*
X9302738Y-13532976D02*
X9302738Y-13704405D01*
X9312262Y-13723452D01*
X9331310Y-13732976D01*
X9350357Y-13732976D01*
X9493214Y-13723452D02*
X9474167Y-13732976D01*
X9436071Y-13732976D01*
X9417024Y-13723452D01*
X9407500Y-13704405D01*
X9407500Y-13628214D01*
X9417024Y-13609167D01*
X9436071Y-13599643D01*
X9474167Y-13599643D01*
X9493214Y-13609167D01*
X9502738Y-13628214D01*
X9502738Y-13647262D01*
X9407500Y-13666309D01*
X9674167Y-13732976D02*
X9674167Y-13532976D01*
X9674167Y-13723452D02*
X9655119Y-13732976D01*
X9617024Y-13732976D01*
X9597976Y-13723452D01*
X9588452Y-13713928D01*
X9578929Y-13694881D01*
X9578929Y-13637738D01*
X9588452Y-13618690D01*
X9597976Y-13609167D01*
X9617024Y-13599643D01*
X9655119Y-13599643D01*
X9674167Y-13609167D01*
X9750357Y-13809167D02*
X9759881Y-13799643D01*
X9778929Y-13771071D01*
X9788452Y-13752024D01*
X9797976Y-13723452D01*
X9807500Y-13675833D01*
X9807500Y-13637738D01*
X9797976Y-13590119D01*
X9788452Y-13561548D01*
X9778929Y-13542500D01*
X9759881Y-13513928D01*
X9750357Y-13504405D01*
M02*
